<?xml version="1.0" encoding="UTF-8"?>
<svg id="katman_1" xmlns="http://www.w3.org/2000/svg" xmlns:xlink="http://www.w3.org/1999/xlink" version="1.1" viewBox="0 0 1412.42 1880.73">
  <!-- Generator: Adobe Illustrator 30.2.1, SVG Export Plug-In . SVG Version: 2.1.1 Build 1)  -->
  <defs>
    <style>
      .st0 {
        fill: none;
      }

      .st1 {
        fill: #fffdf9;
      }

      .st2 {
        fill: #141414;
      }

      .st3 {
        fill: #ff4993;
      }

      .st4 {
        clip-path: url(#clippath);
      }
    </style>
    <clipPath id="clippath">
      <rect class="st0" width="1412.42" height="1880.73"/>
    </clipPath>
  </defs>
  <rect class="st2" width="1412.42" height="1880.73"/>
  <g class="st4">
    <path class="st3" d="M-447.05-15.62c-3.49-49.72,11.43-95.74,37.96-137.44,46.91-73.64,117.18-131.96,196.46-167.95,142.53-64.69,311.78-52.97,443.84,27.71-21.49-49.23-22.61-106.38-7.42-158.61,19.49-67.08,64.19-121.27,125.47-154.43,69.07-37.38,152-46.01,228.88-34.39,146.82,22.2,261.94,123.4,347.28,239.8,13.1-63.64,59.14-117.68,116.11-149.19,68.05-37.68,150.84-46.92,227.31-39.68,70.16,6.67,140.61,28.28,197.94,70.23,54.35,39.79,93.13,96.16,105.79,162.77,10.58,55.65,2.08,115.28-29.16,162.52,65.14-20.68,135.24-28.41,202.41-15,64.49,12.9,122.74,45.9,161.66,99.65,35.31,48.82,53.18,112.24,36.65,171.4-30.57,109.54-147,158.89-248.23,191.46,84.28,4.47,174.07,16.25,237.23,76.12,57.43,54.44,75.47,137.69,68.16,214.14-7.77,81.53-43.56,159.84-97.08,221.51-54.94,63.31-129.88,108.44-213.87,118.47-47.12,5.66-95.7,1.47-140.12-14.06,16.85,65.39,12.08,134.9-12.32,198.68-55.61,145.5-217.01,221.25-366.82,197.83-133.75-20.89-242.53-128.64-269.51-259.23-33.54,71.19-78.33,137.18-136.47,190.66-125.47,115.35-328.58,161.97-477.85,63.38-68.18-45.02-118.25-114.4-144.49-191.37-27.67-81.29-29.01-168.91-12.79-252.71-44.45,38.48-101.9,60.57-160.89,66.91-71.73,7.71-145.27-7.29-206.19-46.52-64.21-41.33-111.58-104.23-140.11-174.53-14.5-35.72-24.1-73.4-28.44-111.7-4.83-42.56-4.31-87.53,14.27-127,30.43-64.6,98.39-101,160.46-130.99-83.71-25.02-142.66-94.86-178.28-173.02-19.32-42.43-34.58-88.7-37.83-135.43Z"/>
  </g>
  <g>
    <g>
      <path class="st1" d="M182.9,797.48c.63-5.46-3.32-10.45-8.78-11.09l-99.13-11.52c-5.46-.63-9.41-5.62-8.78-11.09l23.97-206.27c.63-5.46,5.62-9.41,11.09-8.78l462.74,53.78c5.46.63,9.41,5.62,8.78,11.09l-23.97,206.27c-.63,5.46-5.62,9.41-11.09,8.78l-99.13-11.52c-5.46-.63-10.45,3.32-11.09,8.78l-27.73,238.57c-.63,5.46-5.62,9.41-11.09,8.78l-224.74-26.12c-5.46-.63-9.41-5.62-8.78-11.09l27.73-238.57Z"/>
      <path class="st1" d="M600.94,614.64c0-5.5,4.5-10,10-10h183.93c5.5,0,10,4.5,10,10v393.37c0,5.5-4.5,10-10,10h-183.93c-5.5,0-10-4.5-10-10v-393.37Z"/>
      <path class="st1" d="M857.18,635.5c.5-5.48,5.38-9.55,10.86-9.06l471.37,42.7c5.48.5,9.55,5.38,9.06,10.86l-12.22,134.87c-.5,5.48-5.38,9.55-10.86,9.06l-222.36-20.14c-5.48-.5-10.37,3.58-10.86,9.06l-5.51,60.84c-.5,5.48,3.58,10.37,9.06,10.86l81.03,7.34c5.48.5,9.55,5.38,9.06,10.86l-5.51,60.84c-.5,5.48,3.58,10.37,9.06,10.86l121.41,11c5.48.5,9.55,5.38,9.06,10.86l-15.27,168.52c-.5,5.48-5.38,9.55-10.86,9.06l-471.37-42.7c-5.48-.5-9.55-5.38-9.06-10.86l43.92-484.83Z"/>
    </g>
    <g>
      <path class="st1" d="M71.43,106.75c-.21-5.5,4.12-10.16,9.62-10.37l176.84-6.64c5.5-.21,10.16,4.12,10.37,9.62l7.94,211.39c.21,5.5,4.87,9.82,10.37,9.62l171.52-6.44c5.5-.21,10.16,4.12,10.37,9.62l6.85,182.47c.21,5.5-4.12,10.16-9.62,10.37l-368.34,13.84c-5.5.21-10.16-4.12-10.37-9.62l-15.55-413.84Z"/>
      <path class="st1" d="M514.1,341.66c0-110.53,89.25-199.78,199.78-199.78s199.78,89.25,199.78,199.78-89.25,199.78-199.78,199.78-199.78-89.25-199.78-199.78Z"/>
      <path class="st1" d="M928.18,341.66c0-110.53,89.25-199.78,199.78-199.78s199.78,89.25,199.78,199.78-89.25,199.78-199.78,199.78-199.78-89.25-199.78-199.78Z"/>
    </g>
  </g>
  <g>
    <g>
      <g>
        <rect class="st1" x="106.49" y="1518.98" width="1153.53" height="239.67" rx="16.46" ry="16.46"/>
        <g>
          <g>
            <rect class="st3" x="135.24" y="1548.24" width="138.71" height="138.71" rx="6.66" ry="6.66"/>
            <g>
              <g>
                <ellipse class="st1" cx="167.84" cy="1605.51" rx="21.54" ry="30.87"/>
                <path class="st2" d="M187.88,1642.9c-.23,0-.47-.05-.69-.16-23.72-11.43-36.92-2.48-37.05-2.39-.72.5-1.7.33-2.21-.39-.5-.72-.33-1.7.39-2.21.15-.11,3.84-2.66,10.7-3.63,3.96-.56,8.2-.49,12.6.22,5.45.88,11.15,2.74,16.95,5.54.79.38,1.12,1.33.74,2.12-.27.57-.84.9-1.43.9Z"/>
                <path class="st2" d="M187.88,1610.69c-.08,4.14-.96,8.23-2.78,11.96-2.75,5.68-8.56,13.64-15.67,13.64-8.9,0-13.27-12.23-14.7-19.48-1.74-8.79-.43-18.27,4.25-25.99,2.59-4.26,6.71-8.28,11.69-8.18,4.45.08,8.18,3.44,10.74,7.08,4.2,5.96,6.62,13.54,6.47,20.97Z"/>
                <circle class="st1" cx="162.94" cy="1598.46" r="3.92"/>
              </g>
              <g>
                <ellipse class="st1" cx="241.26" cy="1607.01" rx="21.54" ry="30.87"/>
                <path class="st2" d="M261.31,1644.4c-.23,0-.47-.05-.69-.16-12.25-5.9-20.37-6.46-25.02-5.88-4.93.61-7.06,2.59-7.08,2.61h.01s-2.23-2.26-2.23-2.26c.4-.4,10.15-9.62,35.7,2.69.79.38,1.12,1.33.74,2.12-.27.57-.84.9-1.43.9Z"/>
                <path class="st2" d="M261.3,1612.19c-.08,4.14-.96,8.23-2.78,11.96-2.75,5.68-8.56,13.64-15.67,13.64-8.9,0-13.27-12.23-14.7-19.48-1.74-8.79-.43-18.27,4.25-25.99,2.59-4.26,6.71-8.28,11.69-8.18,4.45.08,8.18,3.44,10.74,7.08,4.2,5.96,6.62,13.54,6.47,20.97Z"/>
                <circle class="st1" cx="236.37" cy="1599.96" r="3.92" transform="translate(-1375.09 1462.38) rotate(-76.72)"/>
              </g>
              <path class="st2" d="M211.91,1660.55c-9.81,0-19.4-8.15-19.82-8.52-.66-.57-.74-1.57-.17-2.24.57-.66,1.57-.74,2.24-.17.1.08,10.01,8.5,18.97,7.7,3.33-.3,6.04-1.79,8.3-4.56,4.03-4.95,4.12-10.18.28-15.54-1.17-1.64-2.92-2.7-4.92-3-2.01-.3-4.01.21-5.63,1.45-8.88,6.77-17.6,7.22-17.97,7.23-.87.04-1.61-.64-1.65-1.52-.04-.87.64-1.61,1.51-1.65.13,0,8.16-.47,16.18-6.58,2.3-1.76,5.15-2.49,8.02-2.06,2.85.43,5.35,1.95,7.03,4.29,2.05,2.87,3.2,5.79,3.39,8.7.25,3.7-1.02,7.3-3.79,10.69-2.79,3.43-6.32,5.35-10.49,5.72-.5.04-.99.06-1.49.06Z"/>
            </g>
            <rect class="st2" x="135.24" y="1692.46" width="138.71" height="36.93" rx="6.66" ry="6.66"/>
            <g>
              <path class="st1" d="M160.9,1701.24c.53,0,.96.15,1.29.46.33.31.5.72.5,1.23s-.17.95-.5,1.27c-.33.32-.76.47-1.29.47h-5.03v3.14h4.28c.55,0,.98.15,1.31.45.32.3.49.71.49,1.22s-.17.96-.5,1.28c-.33.32-.77.49-1.32.49h-4.26v3.73h5.03c.55,0,.98.15,1.31.46.32.31.49.72.49,1.23s-.17.95-.5,1.27c-.33.32-.76.47-1.29.47h-7.17c-.6,0-1.08-.18-1.44-.55-.37-.36-.55-.85-.55-1.44v-13.19c0-.6.18-1.08.55-1.44.36-.36.85-.55,1.44-.55h7.17Z"/>
              <path class="st1" d="M168.35,1718.53c-.61-.09-1.12-.21-1.54-.35-.42-.14-.78-.29-1.06-.45-.28-.16-.52-.3-.72-.44-.28-.18-.53-.42-.75-.72-.22-.3-.32-.65-.32-1.05,0-.53.18-.96.54-1.29.36-.33.8-.5,1.33-.5.32,0,.58.07.78.2.21.13.4.27.58.4.1.07.23.15.39.26.16.11.35.21.59.3.23.09.51.17.83.24.32.07.71.1,1.16.1.4,0,.74-.04,1.02-.11.28-.07.51-.18.68-.32.17-.14.3-.3.39-.49.08-.18.12-.37.12-.57,0-.25-.05-.47-.15-.67-.1-.2-.27-.39-.52-.56-.25-.17-.58-.35-1-.52-.41-.17-.94-.36-1.57-.56-.86-.28-1.61-.6-2.24-.95-.63-.35-1.15-.74-1.56-1.18-.41-.44-.71-.93-.9-1.48-.19-.55-.29-1.17-.29-1.87s.12-1.37.36-1.98c.24-.61.61-1.13,1.1-1.57.49-.44,1.12-.78,1.88-1.03.76-.25,1.67-.37,2.71-.37s2.02.12,2.83.35c.8.23,1.5.56,2.08,1,.28.2.53.45.75.75.22.3.32.62.32.97,0,.55-.16.99-.49,1.32-.32.33-.75.5-1.28.5-.23,0-.48-.07-.75-.2-.27-.13-.48-.27-.65-.4-.17-.13-.33-.25-.5-.35-.17-.1-.36-.19-.57-.26-.22-.07-.46-.13-.72-.17-.27-.04-.59-.06-.97-.06-.68,0-1.18.14-1.49.42-.32.28-.47.64-.47,1.07,0,.25.06.48.17.68.12.21.3.4.55.57.25.17.56.34.95.5.38.16.85.31,1.39.46.93.27,1.72.56,2.38.88.66.32,1.19.7,1.61,1.12.41.42.71.91.9,1.47.18.56.27,1.2.27,1.93,0,.78-.13,1.49-.39,2.12-.26.63-.64,1.17-1.15,1.62-.51.45-1.13.79-1.88,1.03-.75.24-1.61.36-2.59.36-.83,0-1.55-.05-2.15-.14Z"/>
              <path class="st1" d="M188.9,1701.24c.51,0,.92.16,1.23.47.31.32.46.74.46,1.27s-.15.93-.46,1.23c-.31.31-.72.46-1.23.46h-2.79v12c0,.6-.19,1.08-.56,1.44-.37.36-.9.55-1.58.55-.6,0-1.08-.18-1.44-.55-.37-.36-.55-.85-.55-1.44v-12h-2.79c-.51,0-.93-.16-1.23-.47-.31-.31-.46-.74-.46-1.27s.15-.92.46-1.23c.31-.31.72-.46,1.23-.46h9.71Z"/>
              <path class="st1" d="M194.88,1718.08c-.4.39-.94.58-1.62.58s-1.17-.2-1.57-.6c-.4-.4-.6-.94-.6-1.62s.2-1.17.6-1.57c.4-.4.94-.6,1.62-.6s1.19.21,1.58.62c.39.42.59.95.59,1.59s-.2,1.19-.6,1.58Z"/>
              <path class="st1" d="M215.49,1715.44c.35.31.52.73.52,1.26s-.17.95-.52,1.26c-.35.31-.81.46-1.37.46h-7.92c-.48,0-.86-.15-1.15-.44-.28-.29-.42-.68-.42-1.16,0-.25.05-.51.15-.78.1-.27.23-.51.4-.71l5.05-5.95c.25-.3.46-.58.65-.86.18-.27.33-.54.45-.81.12-.27.2-.53.25-.78.05-.26.07-.52.07-.78,0-.3-.05-.56-.15-.78-.1-.22-.23-.41-.4-.55-.17-.14-.36-.25-.57-.32-.22-.07-.45-.11-.7-.11s-.46.03-.63.09c-.17.06-.33.14-.46.24-.13.1-.25.22-.35.37s-.19.32-.27.5c-.17.33-.39.59-.67.78-.28.19-.61.29-1,.29-.51,0-.93-.15-1.24-.45-.32-.3-.47-.71-.47-1.24s.14-1.01.41-1.49c.27-.48.65-.9,1.12-1.27.47-.36,1.04-.66,1.69-.87.66-.22,1.36-.32,2.1-.32.83,0,1.59.14,2.28.41.69.27,1.29.64,1.8,1.11.51.46.91,1.01,1.19,1.63.28.62.42,1.28.42,1.98,0,.6-.08,1.16-.25,1.68-.17.52-.38,1.01-.63,1.47-.26.46-.54.88-.85,1.26-.31.38-.6.74-.88,1.07l-2.94,3.39h3.91c.56,0,1.02.15,1.37.46Z"/>
              <path class="st1" d="M229.78,1715.6c-.33.73-.78,1.32-1.34,1.77-.56.45-1.22.78-1.97.98s-1.54.31-2.36.31-1.62-.1-2.36-.31-1.4-.54-1.97-.98c-.56-.45-1.01-1.04-1.34-1.77-.33-.73-.5-1.62-.5-2.66v-6.22c0-1.11.17-2.03.5-2.76.33-.73.78-1.32,1.34-1.76.56-.44,1.22-.75,1.97-.93.75-.18,1.53-.27,2.36-.27s1.62.09,2.36.27c.75.18,1.4.49,1.97.92.56.43,1.01,1.02,1.34,1.76.33.74.5,1.66.5,2.75v6.25c0,1.05-.17,1.93-.5,2.66ZM222.03,1712.46c0,.46.03.87.1,1.21.07.34.18.63.35.86.17.23.38.41.63.52.26.12.58.17.98.17s.71-.06.97-.17c.27-.12.48-.29.63-.52.16-.23.27-.52.34-.86.07-.34.1-.74.1-1.21v-5.28c0-.46-.03-.87-.1-1.21-.07-.34-.18-.63-.34-.86-.16-.23-.37-.41-.63-.52-.27-.12-.59-.17-.97-.17s-.73.06-.98.17c-.26.12-.47.29-.63.52-.17.23-.28.52-.35.86-.07.34-.1.74-.1,1.21v5.28Z"/>
              <path class="st1" d="M243.37,1715.44c.35.31.52.73.52,1.26s-.17.95-.52,1.26c-.35.31-.81.46-1.37.46h-7.92c-.48,0-.86-.15-1.15-.44-.28-.29-.42-.68-.42-1.16,0-.25.05-.51.15-.78.1-.27.23-.51.4-.71l5.05-5.95c.25-.3.46-.58.65-.86.18-.27.33-.54.45-.81.12-.27.2-.53.25-.78.05-.26.07-.52.07-.78,0-.3-.05-.56-.15-.78-.1-.22-.23-.41-.4-.55-.17-.14-.36-.25-.57-.32-.22-.07-.45-.11-.7-.11s-.46.03-.63.09c-.17.06-.33.14-.46.24-.13.1-.25.22-.35.37s-.19.32-.27.5c-.17.33-.39.59-.67.78-.28.19-.61.29-1,.29-.51,0-.93-.15-1.24-.45-.32-.3-.47-.71-.47-1.24s.14-1.01.41-1.49c.27-.48.65-.9,1.12-1.27.47-.36,1.04-.66,1.69-.87.66-.22,1.36-.32,2.1-.32.83,0,1.59.14,2.28.41.69.27,1.29.64,1.8,1.11.51.46.91,1.01,1.19,1.63.28.62.42,1.28.42,1.98,0,.6-.08,1.16-.25,1.68-.17.52-.38,1.01-.63,1.47-.26.46-.54.88-.85,1.26-.31.38-.6.74-.88,1.07l-2.94,3.39h3.91c.56,0,1.02.15,1.37.46Z"/>
              <path class="st1" d="M249.61,1718.35c-.75-.21-1.4-.54-1.97-.98-.56-.45-1.01-1.04-1.34-1.77-.33-.73-.5-1.62-.5-2.66,0-.71.13-1.5.4-2.36.27-.86.72-1.87,1.37-3.01l2.91-5.1c.28-.5.58-.87.91-1.11.32-.24.69-.36,1.11-.36.53,0,.97.15,1.32.45.35.3.52.71.52,1.22,0,.22-.04.44-.11.67-.07.23-.18.47-.31.72l-2.27,4.01c.28-.12.55-.19.81-.24.26-.04.55-.06.88-.06.65,0,1.26.13,1.84.39.58.26,1.09.61,1.53,1.07.44.46.79,1,1.05,1.64.26.64.39,1.33.39,2.08,0,1.05-.17,1.93-.5,2.66-.33.73-.78,1.32-1.33,1.77-.56.45-1.21.78-1.95.98s-1.54.31-2.36.31-1.64-.1-2.39-.31ZM253.55,1714.64c.32-.39.47-.88.47-1.48s-.16-1.09-.47-1.48c-.32-.39-.83-.58-1.54-.58s-1.26.2-1.58.58c-.32.39-.49.88-.49,1.48s.16,1.09.49,1.48c.32.39.85.58,1.58.58s1.23-.19,1.54-.58Z"/>
            </g>
          </g>
          <path class="st2" d="M903.34,1697.75c-.15,1.6-.4,3.45-.8,5.55-.4,2.1-.75,3.65-1.15,4.7l-3-.75c1-4.25,1.5-7.45,1.6-9.7l3.35.2h0ZM907.84,1710.11h-3.95v-13.9c-2.15.2-3.75.35-4.85.4l-.4-3.45c.65,0,1.5,0,2.5-.05.65-.85,1.3-1.8,1.95-2.85-1.85-2.3-3.35-4.05-4.5-5.3l2.25-2.55.55.6c1.2-1.95,2.1-3.7,2.7-5.25l3.45,1.45c-1.15,2.25-2.45,4.35-3.9,6.4.45.5.9,1.05,1.45,1.7,1.5-2.4,2.55-4.3,3.2-5.75l3.45,1.65c-1.7,3-3.85,6.25-6.45,9.75,1.3-.1,2.4-.15,3.3-.25-.35-1.3-.65-2.15-.8-2.45l3.1-.9c.55,1.55,1.2,3.8,1.95,6.65l-3.25.85c0-.25-.1-.65-.25-1.25-.35.05-.85.15-1.55.25v14.25s.05,0,.05,0ZM912.54,1703.81l-3.1.65c-.25-1.85-.55-4.05-.85-6.7l2.95-.5,1,6.55h0ZM922.14,1707.31c-2.5.85-6.3,1.55-11.3,2.2l-.7-4.1c1-.1,2-.25,3-.35v-23.95c2.1-.15,4.7-.45,7.75-1,3.05-.5,5.35-1.1,6.9-1.7l1.85,3.75c-1,.4-2.65.85-4.95,1.25v1.25c0,1.4,0,3.25.05,5.65h5.2v3.95h-5.15c.1,1.6.3,3.1.55,4.5.25,1.4.55,2.7.9,3.85.35,1.15.55,1.75.65,1.9.1.1.2.2.3.2.25,0,.4-.1.45-.3.05-.2.15-1.85.25-4.95l3.15.8c0,1.35-.1,2.8-.2,4.3-.1,1.55-.2,2.6-.3,3.15-.1.55-.4,1.1-.95,1.55-.55.45-1.2.65-1.95.65-.65,0-1.3-.15-1.85-.5-.55-.35-1.15-.9-1.75-1.8-.6-.85-1.15-1.95-1.65-3.3-.5-1.35-.9-2.85-1.2-4.5-.3-1.65-.5-3.5-.65-5.55h-3.25s0,10.15,0,10.15c2.05-.35,3.6-.65,4.7-.95l.15,3.85h0ZM920.39,1684.15l-3.05.4v5.8s3.1,0,3.1,0c0-1.3-.05-2.75-.05-4.45v-1.75ZM885.89,1688.35l4.85,4.85c.35-1.1.8-2.2,1.3-3.3l-4.7-4.6c-.55,1.05-1,2.05-1.45,3.05ZM884.14,1693.55l5.3,5.25c.1-.95.3-1.85.5-2.8l-5-5.05c-.3.85-.6,1.75-.8,2.6ZM888.19,1683.75l4.6,4.6c.65-1.25,1.4-2.45,2.2-3.65l-4.5-4.55c-.8,1.2-1.55,2.4-2.3,3.6ZM883.39,1697.25c-.15.9-.2,1.75-.25,2.6l6.6,6.3c-.2-1.05-.35-2.15-.4-3.3l-5.95-5.6ZM939.39,1670.25l-.1-.1c-10.8-10.9-30.6-8.75-44.25,4.8-1.35,1.35-2.6,2.75-3.75,4.25l4.45,4.55c1.1-1.5,2.35-2.95,3.75-4.3,11.2-11.15,27.1-13.35,35.4-4.95l.1.1-4.55,4.55h13.35s0-13.3,0-13.3l-4.4,4.4ZM943.54,1700.81l-4.85-4.85c-.35,1.1-.8,2.2-1.3,3.3l4.7,4.6c.5-1.05,1-2.05,1.45-3.05h0ZM945.29,1695.6l-5.35-5.25c-.1.95-.3,1.85-.5,2.8l5.05,5.05c.3-.85.55-1.7.8-2.6h0ZM941.19,1705.41l-4.6-4.6c-.65,1.25-1.4,2.45-2.2,3.65l4.5,4.55c.8-1.15,1.6-2.35,2.3-3.6h0ZM945.99,1691.95c.15-.9.2-1.75.25-2.6l-6.6-6.3c.2,1.05.35,2.15.4,3.3l5.95,5.6ZM890.04,1718.91l.1.1c10.8,10.9,30.6,8.75,44.25-4.8,1.35-1.35,2.6-2.75,3.75-4.25l-4.45-4.55c-1.1,1.5-2.35,2.95-3.75,4.3-11.2,11.15-27.1,13.35-35.4,4.95l-.1-.1,4.55-4.55h-13.35v13.3s4.4-4.4,4.4-4.4ZM834.35,1706.53v-5.44s-7.51,13.25-7.51,13.25l7.51,13.25v-5.56h9.58s1.12.3,2.19-1.66l8.81-15.2s-1.24,1.36-3.07,1.36h-17.5ZM845.5,1704.84l-8.39-14.53,13.5-7.8,6.44,11.16s1.81,3.71,0,7.42c-1.83,3.75-4.79,3.74-4.79,3.74h-6.77ZM810.35,1695.98l4.71,2.72-7.73-13.12-15.23-.1,4.82,2.77-4.78,8.3s-.82.83.34,2.72l8.77,15.22s-.56-1.75.36-3.34l8.74-15.17ZM806.26,1706.49l16.78-.02v15.59s-12.87.01-12.87.01c-2.36,0-4.43-1-6.43-3.7-1.56-2.1-1.61-4.7-.85-6.02l3.38-5.87ZM831.57,1680.31l-4.71,2.72,15.23-.13,7.71-13.13-4.81,2.78-4.79-8.29s-.31-1.12-2.53-1.07l-17.57-.02s1.8.39,2.72,1.98l8.76,15.15ZM824.52,1671.5l-8.38,14.53-13.51-7.79,6.44-11.16s2.31-3.43,6.42-3.71c4.16-.29,5.64,2.27,5.64,2.27l3.39,5.86ZM727.91,1694.51h-25.07c-.87,0-1.57.7-1.57,1.57v.17c0,.83.66,1.52,1.49,1.56l1.61,20.93c-.02.05-.03.1-.03.16,0,.12.03.24.07.35l.42,5.42c.06.72.66,1.28,1.39,1.28h18.27c.73,0,1.33-.56,1.39-1.28l.41-5.31c.14-.24.17-.53.06-.79l1.6-20.76c.85-.02,1.54-.71,1.54-1.57v-.17c0-.87-.7-1.57-1.57-1.57ZM705.55,1697.82h2.87s.16,3.02.16,3.02h-2.8s-.23-3.02-.23-3.02ZM705.94,1702.83h2.75s.2,3.7.2,3.7h-2.67s-.28-3.7-.28-3.7ZM706.38,1708.52h2.62s.2,3.7.2,3.7h-2.53s-.28-3.7-.28-3.7ZM706.81,1714.2h2.49s.2,3.7.2,3.7h-2.4s-.28-3.7-.28-3.7ZM707.51,1723.18l-.25-3.28h2.35s.18,3.28.18,3.28h-2.28ZM714.36,1723.18h-2.59s-.18-3.28-.18-3.28h2.77v3.28ZM714.36,1717.91h-2.87s-.2-3.7-.2-3.7h3.07v3.7ZM714.36,1712.22h-3.18s-.2-3.7-.2-3.7h3.38v3.7ZM714.36,1706.53h-3.48s-.2-3.7-.2-3.7h3.68v3.7ZM714.36,1700.84h-3.79s-.16-3.02-.16-3.02h3.95v3.02ZM718.92,1723.18h-2.57v-3.28h2.74s-.18,3.28-.18,3.28ZM719.2,1717.91h-2.85v-3.7h3.05s-.2,3.7-.2,3.7ZM719.5,1712.22h-3.16v-3.7h3.35s-.2,3.7-.2,3.7ZM719.81,1706.53h-3.46v-3.7h3.66s-.2,3.7-.2,3.7ZM720.11,1700.84h-3.77v-3.02h3.93s-.16,3.02-.16,3.02ZM723.2,1723.18h-2.3s.18-3.28.18-3.28h2.38s-.25,3.28-.25,3.28ZM723.61,1717.91h-2.42s.2-3.7.2-3.7h2.51s-.28,3.7-.28,3.7ZM724.05,1712.22h-2.55s.2-3.7.2-3.7h2.64s-.28,3.7-.28,3.7ZM724.49,1706.53h-2.69s.2-3.7.2-3.7h2.77s-.28,3.7-.28,3.7ZM724.92,1700.84h-2.82s.16-3.02.16-3.02h2.89s-.23,3.02-.23,3.02ZM736.6,1666.8c.58-3.57,3.93-5.99,7.5-5.41,3.57.58,5.99,3.93,5.41,7.5-.58,3.57-3.93,5.99-7.5,5.41-3.57-.58-5.99-3.93-5.41-7.5ZM712.1,1688.39c-.25-.18-.31-.52-.13-.77.08-.12.21-.2.35-.22,2.31-.35,4.4-1.57,5.85-3.41.15-.22.44-.31.69-.2,1.97.92,4.11,1.43,6.29,1.52.3.01.54.26.53.57,0,.07-.02.14-.05.21-1.04,2.43-3.24,4.17-5.84,4.64-.02,0-.04,0-.06,0-2.74.13-5.44-.7-7.63-2.35ZM757.18,1698.61l-1,25.98c-.03.77-.66,1.38-1.43,1.38h-1.42c-.69,0-1.29-.5-1.41-1.18l-3.49-19.63-8.49,19.94c-.22.53-.74.87-1.32.87h-1.78c-.1,0-.19,0-.29-.03-.77-.16-1.27-.91-1.12-1.69l5.3-25.92c.08-.37.06-.75-.04-1.11l-3.54-12.36c-.16-.54-.58-.97-1.12-1.12l-13.55-3.86c-.77-.22-1.25-.99-1.1-1.78.17-.76.85-1.29,1.63-1.27h23.68c2.05,0,3.86,1.3,4.52,3.24l5.4,15.91-10.22,1.01c-.42.04-.73.39-.73.81,0,.45.36.82.81.82h10.71Z"/>
          <g>
            <path class="st2" d="M313.45,1689.78c-1.32-.47-2.46-1.2-3.41-2.18-.95-.98-1.7-2.22-2.24-3.72-.54-1.5-.81-3.27-.81-5.31v-4.28c0-2.06.27-3.84.81-5.35.54-1.5,1.29-2.74,2.24-3.7.95-.96,2.09-1.69,3.41-2.16,1.32-.48,2.76-.71,4.32-.71s2.88.19,4.06.57c1.17.38,2.16.89,2.97,1.5.8.62,1.41,1.33,1.82,2.12.41.79.61,1.6.61,2.41s-.24,1.53-.73,2.06c-.49.53-1.17.79-2.04.79s-1.52-.17-1.94-.51c-.42-.34-.78-.86-1.07-1.54-.24-.61-.62-1.08-1.15-1.43-.53-.34-1.37-.51-2.53-.51-.69,0-1.29.13-1.8.38-.51.25-.95.64-1.31,1.17-.36.53-.63,1.2-.81,2.02-.19.82-.28,1.78-.28,2.89v4.28c0,1.06.09,1.99.26,2.81.17.82.44,1.49.79,2.02.36.53.8.93,1.33,1.21.53.28,1.13.42,1.82.42.61,0,1.12-.04,1.53-.12.41-.08.75-.2,1.01-.36.26-.16.49-.36.67-.59.18-.24.36-.51.51-.83.32-.61.65-1.14,1.01-1.61.36-.46.97-.69,1.84-.69s1.53.23,2.06.69c.53.46.79,1.13.79,2,0,.95-.23,1.85-.69,2.69s-1.11,1.58-1.94,2.22c-.83.63-1.83,1.13-2.99,1.5-1.16.37-2.43.55-3.8.55-1.56,0-3-.24-4.32-.71Z"/>
            <path class="st2" d="M351.14,1683.88c-.54,1.5-1.29,2.74-2.24,3.72-.95.98-2.09,1.7-3.41,2.18-1.32.48-2.76.71-4.32.71s-3-.24-4.32-.71c-1.32-.47-2.46-1.2-3.41-2.18-.95-.98-1.7-2.22-2.24-3.72-.54-1.5-.81-3.27-.81-5.31v-4.28c0-2.06.27-3.84.81-5.35.54-1.5,1.29-2.74,2.24-3.7.95-.96,2.09-1.69,3.41-2.16,1.32-.48,2.76-.71,4.32-.71s3,.24,4.32.71c1.32.47,2.45,1.2,3.41,2.16.95.96,1.7,2.2,2.24,3.7.54,1.5.81,3.29.81,5.35v4.28c0,2.03-.27,3.8-.81,5.31ZM336.98,1678.57c0,1.11.09,2.07.28,2.89.18.82.46,1.49.81,2.02.36.53.79.92,1.31,1.17.51.25,1.12.38,1.8.38s1.29-.13,1.8-.38c.51-.25.95-.64,1.31-1.17.36-.53.63-1.2.81-2.02.18-.82.28-1.78.28-2.89v-4.28c0-1.11-.09-2.07-.28-2.89s-.46-1.49-.81-2.02c-.36-.53-.79-.92-1.31-1.17-.51-.25-1.12-.38-1.8-.38s-1.29.13-1.8.38c-.51.25-.95.64-1.31,1.17-.36.53-.63,1.2-.81,2.02-.19.82-.28,1.78-.28,2.89v4.28Z"/>
            <path class="st2" d="M373.95,1678.54c-1.86,1.56-4.38,2.33-7.54,2.33h-3.72v6.46c0,.95-.29,1.72-.87,2.3-.58.58-1.35.87-2.3.87-1.08,0-1.92-.29-2.51-.87-.59-.58-.89-1.35-.89-2.3v-21.39c0-.95.29-1.72.87-2.3.58-.58,1.35-.87,2.3-.87h7.13c1.58,0,3.01.18,4.28.54,1.27.36,2.35.9,3.25,1.62.9.73,1.59,1.64,2.08,2.75.49,1.11.73,2.43.73,3.96,0,3.04-.93,5.33-2.79,6.89ZM365.22,1675.4c1.74,0,3-.28,3.78-.85.78-.57,1.17-1.54,1.17-2.91,0-1.11-.39-1.95-1.17-2.54-.78-.58-2.04-.87-3.78-.87h-2.53v7.17h2.53Z"/>
            <path class="st2" d="M378.46,1663.25c.62-.58,1.42-.87,2.4-.87.69,0,1.27.15,1.76.43.49.29.87.7,1.13,1.23l4,8.12,4-8.12c.26-.53.64-.94,1.13-1.23.49-.29,1.08-.43,1.76-.43.98,0,1.78.29,2.4.87s.93,1.36.93,2.34c0,.29-.05.59-.16.91-.11.32-.22.59-.36.83l-6.42,11.84v8.16c0,.95-.3,1.72-.89,2.3-.59.58-1.43.87-2.52.87-.95,0-1.72-.29-2.3-.87-.58-.58-.87-1.35-.87-2.3v-8.16l-6.26-11.57c-.16-.29-.31-.6-.46-.93s-.22-.69-.22-1.09c0-.98.31-1.76.93-2.34Z"/>
            <path class="st2" d="M411.43,1662.77c3.14,0,5.65.72,7.53,2.16,1.87,1.44,2.81,3.59,2.81,6.44,0,1.8-.38,3.29-1.13,4.49-.75,1.2-1.83,2.12-3.23,2.75l3.41,5.98c.21.37.43.81.65,1.31.22.5.34,1.03.34,1.58,0,.77-.26,1.46-.79,2.08-.53.62-1.29.93-2.3.93-.69,0-1.31-.17-1.88-.51s-1.06-.95-1.49-1.82l-4.08-8.4h-3.56v7.57c0,.95-.3,1.72-.89,2.3-.59.58-1.43.87-2.51.87-.95,0-1.72-.29-2.3-.87-.58-.58-.87-1.35-.87-2.3v-21.39c0-.95.29-1.72.87-2.3.58-.58,1.35-.87,2.3-.87h7.13ZM410.64,1674.3c.66,0,1.27-.03,1.82-.1s1.04-.2,1.45-.4c.41-.2.73-.5.95-.89s.34-.91.34-1.54-.11-1.2-.34-1.61c-.22-.41-.54-.73-.95-.95-.41-.22-.89-.38-1.45-.46-.55-.08-1.16-.12-1.82-.12h-2.93v6.06h2.93Z"/>
            <path class="st2" d="M427.14,1689.6c-.59-.59-.89-1.38-.89-2.36v-21.7c0-.95.3-1.72.89-2.3.59-.58,1.39-.87,2.4-.87s1.83.29,2.42.87c.58.58.87,1.35.87,2.3v21.7c0,.98-.29,1.76-.87,2.36-.58.59-1.39.89-2.42.89s-1.8-.3-2.4-.89Z"/>
            <path class="st2" d="M443.83,1689.78c-1.32-.47-2.46-1.2-3.41-2.18-.95-.98-1.7-2.22-2.24-3.72-.54-1.5-.81-3.27-.81-5.31v-3.72c0-2.19.27-4.08.81-5.66.54-1.58,1.29-2.88,2.24-3.88.95-1,2.09-1.74,3.41-2.22,1.32-.48,2.76-.71,4.32-.71s2.97.2,4.16.61c1.19.41,2.17.94,2.95,1.58.78.65,1.37,1.36,1.76,2.14.4.78.59,1.54.59,2.28,0,.92-.27,1.63-.81,2.12s-1.2.73-1.96.73c-.85,0-1.49-.18-1.94-.55s-.86-.92-1.23-1.66c-.19-.42-.53-.82-1.03-1.21-.5-.38-1.28-.57-2.34-.57-.71,0-1.34.13-1.88.38-.54.25-1,.64-1.37,1.17-.37.53-.65,1.2-.83,2.02-.19.82-.28,1.78-.28,2.89v4.28c0,1.11.09,2.07.28,2.89.18.82.46,1.49.81,2.02.36.53.79.92,1.31,1.17.51.25,1.12.38,1.8.38s1.21-.1,1.66-.3c.45-.2.82-.47,1.11-.81.29-.34.51-.76.67-1.25.16-.49.26-1.01.32-1.56h-1.54c-.85,0-1.53-.24-2.04-.73s-.77-1.15-.77-2,.26-1.48.77-1.98c.51-.5,1.19-.75,2.04-.75h4.87c.9,0,1.62.27,2.16.81.54.54.81,1.26.81,2.16,0,2.03-.23,3.8-.69,5.29-.46,1.49-1.13,2.73-2,3.7-.87.98-1.93,1.7-3.17,2.18-1.24.48-2.64.71-4.2.71s-3-.24-4.32-.71Z"/>
            <path class="st2" d="M463.26,1689.56c-.59-.62-.89-1.45-.89-2.47v-21.31c0-1.03.3-1.85.89-2.47.59-.62,1.39-.93,2.4-.93s1.83.31,2.42.93c.58.62.87,1.45.87,2.47v7.45h8.4v-7.45c0-1.03.29-1.85.87-2.47.58-.62,1.39-.93,2.42-.93s1.8.31,2.4.93c.59.62.89,1.45.89,2.47v21.31c0,1.03-.3,1.86-.89,2.47-.59.62-1.39.93-2.4.93s-1.84-.31-2.42-.93c-.58-.62-.87-1.45-.87-2.47v-8.4h-8.4v8.4c0,1.03-.29,1.86-.87,2.47-.58.62-1.39.93-2.42.93s-1.8-.31-2.4-.93Z"/>
            <path class="st2" d="M504.82,1662.77c.82,0,1.47.25,1.96.75.49.5.73,1.17.73,2.02s-.24,1.47-.73,1.96c-.49.49-1.14.73-1.96.73h-4.44v19.09c0,.95-.3,1.72-.89,2.3-.59.58-1.43.87-2.52.87-.95,0-1.72-.29-2.3-.87-.58-.58-.87-1.35-.87-2.3v-19.09h-4.44c-.82,0-1.47-.25-1.96-.75-.49-.5-.73-1.17-.73-2.02s.24-1.47.73-1.96c.49-.49,1.14-.73,1.96-.73h15.45Z"/>
            <path class="st2" d="M523.59,1670.74c.72-1.68,1.7-3.14,2.95-4.38,1.25-1.24,2.71-2.21,4.38-2.92,1.67-.71,3.45-1.06,5.35-1.06s3.68.35,5.35,1.06c1.67.71,3.13,1.68,4.38,2.92,1.25,1.24,2.23,2.7,2.95,4.38.72,1.68,1.08,3.48,1.08,5.39s-.36,3.72-1.08,5.39-1.7,3.14-2.95,4.38c-1.25,1.24-2.71,2.21-4.38,2.92-1.67.71-3.45,1.06-5.35,1.06s-3.68-.35-5.35-1.06c-1.67-.71-3.13-1.68-4.38-2.92-1.25-1.24-2.24-2.7-2.95-4.38-.72-1.68-1.08-3.48-1.08-5.39s.36-3.72,1.08-5.39ZM527.59,1679.88c.49,1.17,1.16,2.18,2,3.05.84.87,1.84,1.55,2.99,2.05,1.15.5,2.38.75,3.69.75s2.54-.25,3.69-.75c1.15-.5,2.14-1.18,2.97-2.05.83-.86,1.49-1.88,1.97-3.05.48-1.17.72-2.42.72-3.75s-.24-2.58-.72-3.75c-.48-1.17-1.14-2.18-1.97-3.03-.83-.85-1.82-1.53-2.97-2.03-1.15-.5-2.38-.75-3.69-.75s-2.54.25-3.69.75c-1.15.5-2.14,1.18-2.99,2.03-.84.86-1.51,1.87-2,3.03-.49,1.17-.73,2.42-.73,3.75s.24,2.58.73,3.75ZM538.82,1679.35c.24-.12.5-.19.8-.19.6,0,1.11.19,1.52.58.41.39.61.88.61,1.49,0,.44-.12.83-.37,1.19s-.54.65-.88.88c-.48.35-1.09.61-1.83.75-.74.15-1.52.22-2.33.22-1.15,0-2.16-.17-3.03-.52-.88-.34-1.61-.83-2.2-1.45-.59-.62-1.05-1.37-1.36-2.23-.31-.87-.47-1.82-.47-2.86v-2.19c0-2.31.61-4.06,1.84-5.24,1.23-1.18,3.07-1.77,5.53-1.77.73,0,1.44.08,2.14.25.7.17,1.38.49,2.05.97.27.19.49.44.66.77.17.32.25.68.25,1.08,0,.61-.2,1.1-.61,1.49s-.91.58-1.52.58c-.25,0-.5-.05-.73-.14-.24-.09-.44-.21-.61-.36-.15-.12-.29-.23-.44-.31-.15-.08-.29-.16-.44-.22-.15-.06-.29-.11-.42-.13-.14-.02-.29-.03-.45-.03-1.04,0-1.73.29-2.06.86-.33.57-.5,1.44-.5,2.61v1.38c0,.52.03,1,.08,1.42.05.43.17.8.34,1.11.18.31.43.56.77.73.33.18.79.27,1.38.27.29,0,.59-.05.89-.14.3-.09.56-.22.77-.39.19-.17.4-.31.64-.44Z"/>
            <g>
              <path class="st2" d="M581.02,1677.66l6.3-12.79c.45-.9.96-1.54,1.54-1.92.58-.38,1.24-.57,1.98-.57,1.21,0,2.13.36,2.75,1.07.62.71.93,1.66.93,2.85v21.15c0,.92-.28,1.66-.85,2.22-.57.56-1.33.83-2.28.83s-1.66-.28-2.22-.83c-.55-.55-.83-1.29-.83-2.22v-13.19l-4.55,9.15c-.37.74-.78,1.24-1.23,1.5-.45.26-.96.4-1.54.4s-1.15-.13-1.62-.4c-.48-.26-.9-.76-1.27-1.5l-4.44-9.03v13.07c0,.92-.28,1.66-.85,2.22-.57.56-1.33.83-2.28.83s-1.66-.28-2.22-.83c-.55-.55-.83-1.29-.83-2.22v-21.15c0-1.19.3-2.14.91-2.85.61-.71,1.52-1.07,2.73-1.07.74,0,1.41.19,2,.57.59.38,1.12,1.02,1.56,1.92l6.3,12.79Z"/>
              <path class="st2" d="M619.42,1683.88c-.54,1.5-1.29,2.74-2.24,3.72-.95.98-2.09,1.7-3.41,2.18-1.32.48-2.76.71-4.32.71s-3-.24-4.32-.71c-1.32-.47-2.46-1.2-3.41-2.18-.95-.98-1.7-2.22-2.24-3.72-.54-1.5-.81-3.27-.81-5.31v-4.28c0-2.06.27-3.84.81-5.35.54-1.5,1.29-2.74,2.24-3.7s2.09-1.69,3.41-2.16c1.32-.48,2.76-.71,4.32-.71s3,.24,4.32.71c1.32.47,2.45,1.2,3.41,2.16.95.96,1.7,2.2,2.24,3.7.54,1.5.81,3.29.81,5.35v4.28c0,2.03-.27,3.8-.81,5.31ZM605.26,1678.57c0,1.11.09,2.07.28,2.89.18.82.46,1.49.81,2.02.36.53.79.92,1.31,1.17.51.25,1.12.38,1.8.38s1.29-.13,1.8-.38c.51-.25.95-.64,1.31-1.17.36-.53.63-1.2.81-2.02.18-.82.28-1.78.28-2.89v-4.28c0-1.11-.09-2.07-.28-2.89s-.46-1.49-.81-2.02c-.36-.53-.79-.92-1.31-1.17-.51-.25-1.12-.38-1.8-.38s-1.29.13-1.8.38c-.51.25-.95.64-1.31,1.17-.36.53-.63,1.2-.81,2.02-.19.82-.28,1.78-.28,2.89v4.28Z"/>
              <path class="st2" d="M640.59,1663.21c.55-.56,1.31-.83,2.26-.83s1.67.28,2.24.83c.57.55.85,1.29.85,2.22v21.9c0,.95-.29,1.72-.87,2.3-.58.58-1.35.87-2.3.87-.79,0-1.43-.16-1.9-.49-.48-.33-.87-.75-1.19-1.25l-9.11-14.14v12.83c0,.92-.28,1.66-.85,2.22-.57.56-1.33.83-2.28.83s-1.66-.28-2.22-.83c-.55-.55-.83-1.29-.83-2.22v-21.86c0-.98.3-1.76.89-2.34.59-.58,1.42-.87,2.48-.87.55,0,1.08.14,1.58.42.5.28.91.65,1.23,1.13l9.19,14.34v-12.83c0-.92.28-1.66.83-2.22Z"/>
              <path class="st2" d="M649.46,1666.79c-.11-.43-.16-.85-.16-1.25,0-1.06.32-1.85.95-2.38.63-.53,1.41-.79,2.34-.79.77,0,1.44.21,2.02.63.58.42,1.02,1.14,1.31,2.14l4.4,14.61,4.51-14.73c.29-.9.71-1.56,1.27-2,.55-.44,1.23-.65,2.02-.65,1.03,0,1.84.28,2.44.85.59.57.89,1.28.89,2.12,0,.29-.02.6-.06.93s-.13.67-.26,1.01l-6.89,20.16c-.34,1-.82,1.76-1.43,2.28-.61.52-1.44.77-2.49.77s-1.81-.26-2.42-.77c-.61-.51-1.08-1.27-1.43-2.28l-6.61-19.29c-.16-.48-.29-.93-.4-1.37Z"/>
            </g>
            <path class="st2" d="M317.21,1709.31l-5.07,16.71c-.21.69-.57,1.24-1.07,1.66-.5.42-1.21.63-2.14.63s-1.7-.28-2.32-.85c-.62-.57-.93-1.31-.93-2.24,0-.26.03-.54.08-.81.05-.28.13-.56.24-.85l7.01-20c.45-1.24,1.02-2.11,1.72-2.61.7-.5,1.54-.75,2.52-.75.92,0,1.74.24,2.44.71.7.47,1.27,1.36,1.72,2.65l6.93,19.92c.11.29.18.58.24.87.05.29.08.57.08.83,0,.95-.29,1.71-.87,2.28-.58.57-1.33.85-2.26.85s-1.64-.21-2.16-.63c-.52-.42-.88-.98-1.09-1.66l-5.07-16.71ZM322.01,1723.25h-9.62l1.7-5.47h6.22l1.7,5.47Z"/>
            <path class="st2" d="M338.09,1722.46h8c.82,0,1.47.25,1.96.75.49.5.73,1.17.73,2.02s-.24,1.47-.73,1.96c-.49.49-1.14.73-1.96.73h-11.41c-.95,0-1.72-.29-2.3-.87-.58-.58-.87-1.35-.87-2.3v-21.39c0-.95.3-1.72.89-2.3.59-.58,1.43-.87,2.51-.87.95,0,1.72.29,2.3.87.58.58.87,1.35.87,2.3v19.09Z"/>
            <path class="st2" d="M358.13,1722.46h8c.82,0,1.47.25,1.96.75.49.5.73,1.17.73,2.02s-.24,1.47-.73,1.96c-.49.49-1.14.73-1.96.73h-11.41c-.95,0-1.72-.29-2.3-.87-.58-.58-.87-1.35-.87-2.3v-21.39c0-.95.3-1.72.89-2.3.59-.58,1.43-.87,2.51-.87.95,0,1.72.29,2.3.87.58.58.87,1.35.87,2.3v19.09Z"/>
            <path class="st2" d="M391.79,1700.6c3.14,0,5.65.72,7.53,2.16,1.87,1.44,2.81,3.59,2.81,6.44,0,1.8-.38,3.29-1.13,4.49-.75,1.2-1.83,2.12-3.23,2.75l3.41,5.98c.21.37.43.81.65,1.31.22.5.34,1.03.34,1.58,0,.77-.26,1.46-.79,2.08-.53.62-1.29.93-2.3.93-.69,0-1.31-.17-1.88-.51-.57-.34-1.06-.95-1.49-1.82l-4.08-8.4h-3.56v7.57c0,.95-.3,1.72-.89,2.3-.59.58-1.43.87-2.51.87-.95,0-1.72-.29-2.3-.87-.58-.58-.87-1.35-.87-2.3v-21.39c0-.95.29-1.72.87-2.3.58-.58,1.35-.87,2.3-.87h7.13ZM391,1712.12c.66,0,1.27-.03,1.82-.1s1.04-.2,1.45-.4c.41-.2.73-.5.95-.89s.34-.91.34-1.54-.11-1.2-.34-1.61c-.22-.41-.54-.73-.95-.95-.41-.22-.89-.38-1.45-.46-.55-.08-1.16-.12-1.82-.12h-2.93v6.06h2.93Z"/>
            <path class="st2" d="M407.49,1727.43c-.59-.59-.89-1.38-.89-2.36v-21.7c0-.95.3-1.72.89-2.3.59-.58,1.39-.87,2.4-.87s1.83.29,2.42.87c.58.58.87,1.35.87,2.3v21.7c0,.98-.29,1.76-.87,2.36-.58.59-1.39.89-2.42.89s-1.8-.3-2.4-.89Z"/>
            <path class="st2" d="M424.19,1727.61c-1.32-.47-2.46-1.2-3.41-2.18-.95-.98-1.7-2.22-2.24-3.72-.54-1.5-.81-3.27-.81-5.31v-3.72c0-2.19.27-4.08.81-5.66.54-1.58,1.29-2.88,2.24-3.88.95-1,2.09-1.74,3.41-2.22,1.32-.48,2.76-.71,4.32-.71s2.97.2,4.16.61c1.19.41,2.17.94,2.95,1.58.78.65,1.37,1.36,1.76,2.14.4.78.59,1.54.59,2.28,0,.92-.27,1.63-.81,2.12-.54.49-1.2.73-1.96.73-.85,0-1.49-.18-1.94-.55-.45-.37-.86-.92-1.23-1.66-.19-.42-.53-.82-1.03-1.21-.5-.38-1.28-.57-2.34-.57-.71,0-1.34.13-1.88.38-.54.25-1,.64-1.37,1.17-.37.53-.65,1.2-.83,2.02-.19.82-.28,1.78-.28,2.89v4.28c0,1.11.09,2.07.28,2.89.18.82.46,1.49.81,2.02.36.53.79.92,1.31,1.17.51.25,1.12.38,1.8.38s1.21-.1,1.66-.3c.45-.2.82-.47,1.11-.81.29-.34.51-.76.67-1.25.16-.49.26-1.01.32-1.56h-1.54c-.85,0-1.53-.24-2.04-.73-.51-.49-.77-1.15-.77-2s.26-1.48.77-1.98c.51-.5,1.19-.75,2.04-.75h4.87c.9,0,1.62.27,2.16.81.54.54.81,1.26.81,2.16,0,2.03-.23,3.8-.69,5.29-.46,1.49-1.13,2.73-2,3.7-.87.98-1.93,1.7-3.17,2.18-1.24.48-2.64.71-4.2.71s-3-.24-4.32-.71Z"/>
            <path class="st2" d="M443.61,1727.39c-.59-.62-.89-1.45-.89-2.47v-21.31c0-1.03.3-1.85.89-2.47.59-.62,1.39-.93,2.4-.93s1.83.31,2.42.93c.58.62.87,1.45.87,2.47v7.45h8.4v-7.45c0-1.03.29-1.85.87-2.47.58-.62,1.39-.93,2.42-.93s1.8.31,2.4.93c.59.62.89,1.45.89,2.47v21.31c0,1.03-.3,1.86-.89,2.47-.59.62-1.39.93-2.4.93s-1.84-.31-2.42-.93c-.58-.62-.87-1.45-.87-2.47v-8.4h-8.4v8.4c0,1.03-.29,1.86-.87,2.47-.58.62-1.39.93-2.42.93s-1.8-.31-2.4-.93Z"/>
            <path class="st2" d="M485.18,1700.6c.82,0,1.47.25,1.96.75.49.5.73,1.17.73,2.02s-.24,1.47-.73,1.96-1.14.73-1.96.73h-4.44v19.09c0,.95-.3,1.72-.89,2.3-.59.58-1.43.87-2.52.87-.95,0-1.72-.29-2.3-.87-.58-.58-.87-1.35-.87-2.3v-19.09h-4.44c-.82,0-1.47-.25-1.96-.75-.49-.5-.73-1.17-.73-2.02s.24-1.47.73-1.96c.49-.49,1.14-.73,1.96-.73h15.45Z"/>
            <path class="st2" d="M510.84,1700.6c3.14,0,5.65.72,7.53,2.16,1.87,1.44,2.81,3.59,2.81,6.44,0,1.8-.38,3.29-1.13,4.49-.75,1.2-1.83,2.12-3.23,2.75l3.41,5.98c.21.37.43.81.65,1.31.22.5.34,1.03.34,1.58,0,.77-.26,1.46-.79,2.08-.53.62-1.29.93-2.3.93-.69,0-1.31-.17-1.88-.51s-1.06-.95-1.49-1.82l-4.08-8.4h-3.56v7.57c0,.95-.3,1.72-.89,2.3-.59.58-1.43.87-2.51.87-.95,0-1.72-.29-2.3-.87-.58-.58-.87-1.35-.87-2.3v-21.39c0-.95.29-1.72.87-2.3.58-.58,1.35-.87,2.3-.87h7.13ZM510.05,1712.12c.66,0,1.27-.03,1.82-.1s1.04-.2,1.45-.4c.41-.2.73-.5.95-.89s.34-.91.34-1.54-.11-1.2-.34-1.61c-.22-.41-.54-.73-.95-.95-.41-.22-.89-.38-1.45-.46-.55-.08-1.16-.12-1.82-.12h-2.93v6.06h2.93Z"/>
            <path class="st2" d="M539.83,1700.6c.84,0,1.53.24,2.06.73.53.49.79,1.14.79,1.96s-.26,1.52-.79,2.02c-.53.5-1.21.75-2.06.75h-8v4.99h6.81c.87,0,1.56.24,2.08.71.52.48.77,1.12.77,1.94s-.26,1.53-.79,2.04-1.23.77-2.1.77h-6.77v5.94h8c.87,0,1.56.24,2.08.73.51.49.77,1.14.77,1.96s-.26,1.52-.79,2.02-1.21.75-2.06.75h-11.41c-.95,0-1.72-.29-2.3-.87-.58-.58-.87-1.35-.87-2.3v-20.99c0-.95.29-1.72.87-2.3.58-.58,1.35-.87,2.3-.87h11.41Z"/>
            <path class="st2" d="M551.69,1728.1c-.96-.15-1.78-.33-2.45-.56-.67-.22-1.24-.46-1.68-.71-.45-.25-.83-.48-1.15-.69-.45-.29-.85-.67-1.19-1.15-.34-.48-.52-1.03-.52-1.66,0-.84.28-1.53.85-2.06.57-.53,1.27-.79,2.12-.79.5,0,.92.1,1.25.32.33.21.64.42.93.63.16.11.36.25.61.42.25.17.56.33.93.48.37.15.81.27,1.33.38.51.1,1.13.16,1.84.16.63,0,1.17-.06,1.62-.18s.81-.29,1.09-.51c.28-.22.48-.48.61-.77.13-.29.2-.59.2-.91,0-.4-.08-.75-.24-1.07-.16-.32-.44-.61-.83-.89-.4-.28-.92-.55-1.58-.83-.66-.28-1.49-.57-2.5-.89-1.37-.45-2.56-.95-3.56-1.5-1-.56-1.83-1.18-2.48-1.88-.65-.7-1.12-1.48-1.43-2.36-.3-.87-.46-1.86-.46-2.97s.19-2.19.58-3.15c.38-.96.96-1.8,1.74-2.5.78-.7,1.78-1.25,2.99-1.64,1.21-.4,2.65-.59,4.32-.59s3.21.18,4.5.55c1.28.37,2.38.9,3.31,1.58.45.32.84.71,1.19,1.19s.52.99.52,1.54c0,.87-.26,1.57-.77,2.1-.51.53-1.2.79-2.04.79-.37,0-.77-.11-1.19-.32s-.77-.42-1.03-.63c-.26-.21-.53-.4-.79-.56-.26-.16-.57-.3-.91-.41-.34-.12-.73-.21-1.15-.28-.42-.07-.94-.1-1.54-.1-1.08,0-1.87.23-2.38.67-.5.45-.75,1.01-.75,1.7,0,.4.09.76.28,1.09s.48.63.87.91c.4.28.9.54,1.51.79.61.25,1.35.5,2.22.73,1.48.42,2.74.89,3.78,1.41,1.04.51,1.89,1.11,2.55,1.78.66.67,1.13,1.45,1.43,2.34.29.89.44,1.91.44,3.07,0,1.24-.2,2.36-.61,3.37-.41,1-1.02,1.86-1.82,2.57-.81.71-1.8,1.26-2.99,1.64-1.19.38-2.56.57-4.12.57-1.32,0-2.46-.07-3.43-.22Z"/>
            <path class="st2" d="M582.8,1700.6c.84,0,1.53.24,2.06.73.53.49.79,1.14.79,1.96s-.26,1.52-.79,2.02c-.53.5-1.21.75-2.06.75h-8v4.99h6.81c.87,0,1.56.24,2.08.71.52.48.77,1.12.77,1.94s-.26,1.53-.79,2.04-1.23.77-2.1.77h-6.77v5.94h8c.87,0,1.56.24,2.08.73.51.49.77,1.14.77,1.96s-.26,1.52-.79,2.02c-.53.5-1.21.75-2.06.75h-11.41c-.95,0-1.72-.29-2.3-.87-.58-.58-.87-1.35-.87-2.3v-20.99c0-.95.29-1.72.87-2.3.58-.58,1.35-.87,2.3-.87h11.41Z"/>
            <path class="st2" d="M599.16,1700.6c3.14,0,5.65.72,7.53,2.16,1.87,1.44,2.81,3.59,2.81,6.44,0,1.8-.38,3.29-1.13,4.49-.75,1.2-1.83,2.12-3.23,2.75l3.41,5.98c.21.37.43.81.65,1.31.22.5.34,1.03.34,1.58,0,.77-.26,1.46-.79,2.08-.53.62-1.29.93-2.3.93-.69,0-1.31-.17-1.88-.51s-1.06-.95-1.49-1.82l-4.08-8.4h-3.56v7.57c0,.95-.3,1.72-.89,2.3-.59.58-1.43.87-2.51.87-.95,0-1.72-.29-2.3-.87-.58-.58-.87-1.35-.87-2.3v-21.39c0-.95.29-1.72.87-2.3.58-.58,1.35-.87,2.3-.87h7.13ZM598.37,1712.12c.66,0,1.27-.03,1.82-.1s1.04-.2,1.45-.4c.41-.2.73-.5.95-.89s.34-.91.34-1.54-.11-1.2-.34-1.61c-.22-.41-.54-.73-.95-.95-.41-.22-.89-.38-1.45-.46-.55-.08-1.16-.12-1.82-.12h-2.93v6.06h2.93Z"/>
            <path class="st2" d="M611.56,1704.62c-.11-.43-.16-.85-.16-1.25,0-1.06.32-1.85.95-2.38.63-.53,1.41-.79,2.34-.79.77,0,1.44.21,2.02.63.58.42,1.02,1.14,1.31,2.14l4.4,14.61,4.51-14.73c.29-.9.71-1.56,1.27-2,.55-.44,1.23-.65,2.02-.65,1.03,0,1.84.28,2.44.85.59.57.89,1.28.89,2.12,0,.29-.02.6-.06.93s-.13.67-.26,1.01l-6.89,20.16c-.34,1-.82,1.76-1.43,2.28-.61.52-1.44.77-2.49.77s-1.81-.26-2.42-.77c-.61-.51-1.08-1.27-1.43-2.28l-6.61-19.29c-.16-.48-.29-.93-.4-1.37Z"/>
            <path class="st2" d="M651.48,1700.6c.84,0,1.53.24,2.06.73.53.49.79,1.14.79,1.96s-.26,1.52-.79,2.02c-.53.5-1.21.75-2.06.75h-8v4.99h6.81c.87,0,1.56.24,2.08.71.52.48.77,1.12.77,1.94s-.26,1.53-.79,2.04c-.53.51-1.23.77-2.1.77h-6.77v5.94h8c.87,0,1.56.24,2.08.73.51.49.77,1.14.77,1.96s-.26,1.52-.79,2.02c-.53.5-1.21.75-2.06.75h-11.41c-.95,0-1.72-.29-2.3-.87-.58-.58-.87-1.35-.87-2.3v-20.99c0-.95.29-1.72.87-2.3.58-.58,1.35-.87,2.3-.87h11.41Z"/>
            <path class="st2" d="M677.68,1721.67c-.54,1.48-1.29,2.69-2.24,3.62-.95.94-2.09,1.61-3.41,2.02-1.32.41-2.76.61-4.32.61h-7.01c-.95,0-1.72-.29-2.3-.87-.58-.58-.87-1.35-.87-2.3v-20.99c0-.95.29-1.72.87-2.3.58-.58,1.35-.87,2.3-.87h7.01c1.56,0,3,.2,4.32.61,1.32.41,2.45,1.08,3.41,2,.95.92,1.7,2.13,2.24,3.6.54,1.48.81,3.3.81,5.47v3.96c0,2.14-.27,3.95-.81,5.42ZM669.8,1722c.54-.3.97-.73,1.29-1.27.32-.54.54-1.19.65-1.96.12-.76.18-1.61.18-2.53v-3.96c0-.92-.06-1.77-.18-2.54-.12-.76-.34-1.42-.65-1.96-.32-.54-.75-.96-1.29-1.27-.54-.3-1.24-.46-2.08-.46h-3.6v16.4h3.6c.84,0,1.54-.15,2.08-.46Z"/>
          </g>
          <g>
            <path class="st3" d="M333.94,1618.24c-.82-.82-1.23-1.9-1.23-3.24v-29.62c0-1.34.41-2.42,1.23-3.24.82-.82,1.9-1.23,3.24-1.23h9c4.58,0,8.13.82,10.65,2.46s3.77,4.23,3.77,7.77c0,1-.1,1.9-.31,2.68s-.5,1.5-.89,2.15c-.39.65-.86,1.24-1.4,1.76-.54.52-1.15,1.01-1.82,1.45,1.79.86,3.18,2.01,4.16,3.47.99,1.45,1.48,3.37,1.48,5.76,0,1.53-.27,2.96-.81,4.3-.54,1.34-1.39,2.51-2.54,3.52-1.16,1.01-2.65,1.8-4.47,2.38-1.83.58-4.02.87-6.59.87h-10.23c-1.34,0-2.42-.41-3.24-1.23ZM345.9,1595.6c.93,0,1.74-.07,2.43-.22.69-.15,1.26-.36,1.7-.64s.77-.63.98-1.06c.2-.43.31-.92.31-1.48s-.08-1.07-.25-1.54c-.17-.46-.48-.85-.95-1.14-.47-.3-1.11-.53-1.93-.7-.82-.17-1.86-.25-3.13-.25h-3.07v7.04h3.91ZM346.4,1611.75c1.04,0,1.95-.08,2.71-.25.76-.17,1.4-.43,1.9-.78s.88-.8,1.15-1.34c.26-.54.39-1.16.39-1.87,0-1.56-.55-2.65-1.65-3.27-1.1-.61-2.82-.92-5.17-.92h-3.74v8.44h4.42Z"/>
            <path class="st3" d="M376.13,1611.75h11.29c1.16,0,2.08.36,2.77,1.06.69.71,1.03,1.66,1.03,2.85s-.34,2.08-1.03,2.77c-.69.69-1.61,1.03-2.77,1.03h-16.1c-1.34,0-2.42-.41-3.24-1.23-.82-.82-1.23-1.9-1.23-3.24v-30.18c0-1.34.42-2.42,1.26-3.24.84-.82,2.02-1.23,3.55-1.23,1.34,0,2.42.41,3.24,1.23.82.82,1.23,1.9,1.23,3.24v26.94Z"/>
            <path class="st3" d="M396.95,1618.77c-.84-.84-1.26-1.95-1.26-3.32v-30.63c0-1.34.42-2.42,1.26-3.24.84-.82,1.96-1.23,3.38-1.23s2.59.41,3.41,1.23c.82.82,1.23,1.9,1.23,3.24v30.63c0,1.38-.41,2.49-1.23,3.32-.82.84-1.96,1.26-3.41,1.26s-2.54-.42-3.38-1.26Z"/>
            <path class="st3" d="M435.09,1581.52c.78-.78,1.84-1.17,3.18-1.17s2.36.39,3.16,1.17c.8.78,1.2,1.83,1.2,3.13v30.91c0,1.34-.41,2.42-1.23,3.24-.82.82-1.9,1.23-3.24,1.23-1.12,0-2.01-.23-2.68-.7-.67-.46-1.23-1.05-1.68-1.76l-12.85-19.95v18.11c0,1.3-.4,2.35-1.2,3.13-.8.78-1.87,1.17-3.21,1.17s-2.35-.39-3.13-1.17c-.78-.78-1.17-1.83-1.17-3.13v-30.85c0-1.38.42-2.48,1.26-3.3.84-.82,2-1.23,3.49-1.23.78,0,1.53.2,2.24.59.71.39,1.29.92,1.73,1.59l12.97,20.23v-18.11c0-1.3.39-2.35,1.17-3.13Z"/>
            <path class="st3" d="M477.76,1610.63c-.76,2.09-1.82,3.79-3.16,5.11-1.34,1.32-2.94,2.27-4.81,2.85-1.86.58-3.89.87-6.09.87h-9.89c-1.34,0-2.42-.41-3.24-1.23s-1.23-1.9-1.23-3.24v-29.62c0-1.34.41-2.42,1.23-3.24.82-.82,1.9-1.23,3.24-1.23h9.89c2.2,0,4.23.29,6.09.87,1.86.58,3.47,1.52,4.81,2.82,1.34,1.31,2.39,3,3.16,5.09.76,2.09,1.15,4.66,1.15,7.71v5.59c0,3.02-.38,5.57-1.15,7.66ZM466.64,1611.11c.76-.43,1.37-1.03,1.82-1.79.45-.76.76-1.68.92-2.77.17-1.08.25-2.27.25-3.58v-5.59c0-1.3-.08-2.5-.25-3.58-.17-1.08-.47-2-.92-2.77-.45-.76-1.05-1.36-1.82-1.79-.76-.43-1.74-.64-2.93-.64h-5.09v23.14h5.09c1.19,0,2.17-.21,2.93-.64Z"/>
            <path class="st3" d="M506.94,1619.72c-1.36-.2-2.51-.46-3.47-.78-.95-.32-1.74-.65-2.38-1.01s-1.17-.68-1.62-.98c-.64-.41-1.19-.95-1.68-1.62-.49-.67-.73-1.45-.73-2.35,0-1.19.4-2.16,1.2-2.91.8-.74,1.8-1.12,2.99-1.12.71,0,1.29.15,1.76.45.46.3.9.6,1.31.89.22.15.51.34.87.59.35.24.79.46,1.31.67.52.2,1.14.38,1.87.53.73.15,1.59.22,2.6.22.89,0,1.66-.08,2.29-.25.63-.17,1.15-.41,1.54-.73.39-.32.68-.68.87-1.09.19-.41.28-.84.28-1.29,0-.56-.11-1.06-.34-1.51-.22-.45-.61-.87-1.17-1.26-.56-.39-1.3-.78-2.24-1.17-.93-.39-2.11-.81-3.52-1.26-1.94-.63-3.62-1.34-5.03-2.12-1.42-.78-2.58-1.67-3.49-2.65-.92-.99-1.59-2.1-2.01-3.32-.43-1.23-.64-2.63-.64-4.19s.27-3.08.81-4.44c.54-1.36,1.36-2.53,2.46-3.52,1.1-.99,2.51-1.76,4.22-2.32,1.72-.56,3.75-.84,6.09-.84s4.54.26,6.34.78c1.81.52,3.36,1.27,4.67,2.24.63.45,1.19,1,1.68,1.68.48.67.73,1.4.73,2.18,0,1.23-.36,2.22-1.09,2.96-.73.75-1.69,1.12-2.88,1.12-.52,0-1.08-.15-1.68-.45-.6-.3-1.08-.6-1.45-.9-.37-.3-.75-.56-1.12-.78-.37-.22-.8-.42-1.29-.59s-1.02-.3-1.62-.39c-.6-.09-1.32-.14-2.18-.14-1.53,0-2.65.32-3.35.95-.71.63-1.06,1.44-1.06,2.4,0,.56.13,1.07.39,1.54.26.46.67.89,1.23,1.28.56.39,1.26.76,2.12,1.12s1.9.7,3.13,1.03c2.09.6,3.87,1.26,5.34,1.98,1.47.73,2.67,1.57,3.6,2.51.93.95,1.6,2.05,2.01,3.3.41,1.25.61,2.69.61,4.33,0,1.75-.29,3.33-.87,4.75-.58,1.42-1.43,2.63-2.57,3.63-1.14,1-2.54,1.78-4.22,2.32s-3.61.81-5.81.81c-1.86,0-3.48-.1-4.83-.31Z"/>
            <path class="st3" d="M550.84,1580.9c1.19,0,2.16.34,2.91,1.03.74.69,1.12,1.61,1.12,2.77s-.37,2.14-1.12,2.85c-.75.71-1.72,1.06-2.91,1.06h-11.29v7.04h9.61c1.23,0,2.21.33,2.93,1,.73.67,1.09,1.59,1.09,2.74s-.37,2.15-1.12,2.88c-.75.73-1.73,1.09-2.96,1.09h-9.56v8.38h11.29c1.23,0,2.21.35,2.93,1.04.73.69,1.09,1.61,1.09,2.77s-.37,2.14-1.12,2.85c-.75.71-1.72,1.06-2.91,1.06h-16.1c-1.34,0-2.42-.41-3.24-1.23-.82-.82-1.23-1.9-1.23-3.24v-29.62c0-1.34.41-2.42,1.23-3.24.82-.82,1.9-1.23,3.24-1.23h16.1Z"/>
            <path class="st3" d="M573.92,1580.9c4.43,0,7.97,1.02,10.62,3.04,2.65,2.03,3.97,5.06,3.97,9.08,0,2.53-.53,4.65-1.59,6.35s-2.58,2.99-4.56,3.88l4.81,8.44c.3.52.61,1.14.92,1.85s.47,1.45.47,2.24c0,1.08-.37,2.06-1.12,2.93-.74.87-1.83,1.31-3.24,1.31-.97,0-1.85-.24-2.65-.73-.8-.48-1.5-1.34-2.1-2.57l-5.76-11.85h-5.03v10.67c0,1.34-.42,2.42-1.26,3.24-.84.82-2.02,1.23-3.55,1.23-1.34,0-2.42-.41-3.24-1.23-.82-.82-1.23-1.9-1.23-3.24v-30.18c0-1.34.41-2.42,1.23-3.24.82-.82,1.9-1.23,3.24-1.23h10.06ZM572.8,1597.17c.93,0,1.79-.05,2.57-.14.78-.09,1.46-.28,2.04-.56s1.02-.7,1.34-1.26c.32-.56.47-1.28.47-2.18s-.16-1.68-.47-2.26c-.32-.58-.76-1.02-1.34-1.34-.58-.32-1.26-.53-2.04-.64-.78-.11-1.64-.17-2.57-.17h-4.14v8.55h4.14Z"/>
            <path class="st3" d="M596.08,1618.77c-.84-.84-1.26-1.95-1.26-3.32v-30.63c0-1.34.42-2.42,1.26-3.24.84-.82,1.97-1.23,3.38-1.23s2.59.41,3.41,1.23c.82.82,1.23,1.9,1.23,3.24v30.63c0,1.38-.41,2.49-1.23,3.32-.82.84-1.96,1.26-3.41,1.26s-2.54-.42-3.38-1.26Z"/>
            <path class="st3" d="M631.93,1580.9c1.19,0,2.16.34,2.91,1.03.74.69,1.12,1.61,1.12,2.77s-.37,2.14-1.12,2.85c-.75.71-1.72,1.06-2.91,1.06h-11.29v7.04h9.61c1.23,0,2.21.33,2.93,1,.73.67,1.09,1.59,1.09,2.74s-.37,2.15-1.12,2.88c-.75.73-1.73,1.09-2.96,1.09h-9.56v8.38h11.29c1.23,0,2.21.35,2.93,1.04.73.69,1.09,1.61,1.09,2.77s-.37,2.14-1.12,2.85c-.75.71-1.72,1.06-2.91,1.06h-16.1c-1.34,0-2.42-.41-3.24-1.23-.82-.82-1.23-1.9-1.23-3.24v-29.62c0-1.34.41-2.42,1.23-3.24.82-.82,1.9-1.23,3.24-1.23h16.1Z"/>
            <path class="st3" d="M648.67,1619.72c-1.36-.2-2.51-.46-3.47-.78-.95-.32-1.74-.65-2.38-1.01s-1.17-.68-1.62-.98c-.64-.41-1.19-.95-1.68-1.62-.49-.67-.73-1.45-.73-2.35,0-1.19.4-2.16,1.2-2.91.8-.74,1.8-1.12,2.99-1.12.71,0,1.29.15,1.76.45.46.3.9.6,1.31.89.22.15.51.34.87.59.35.24.79.46,1.31.67.52.2,1.14.38,1.87.53.73.15,1.59.22,2.6.22.89,0,1.66-.08,2.29-.25.63-.17,1.15-.41,1.54-.73.39-.32.68-.68.87-1.09.19-.41.28-.84.28-1.29,0-.56-.11-1.06-.34-1.51-.22-.45-.61-.87-1.17-1.26-.56-.39-1.3-.78-2.24-1.17-.93-.39-2.11-.81-3.52-1.26-1.94-.63-3.62-1.34-5.03-2.12-1.42-.78-2.58-1.67-3.49-2.65-.92-.99-1.59-2.1-2.01-3.32-.43-1.23-.64-2.63-.64-4.19s.27-3.08.81-4.44c.54-1.36,1.36-2.53,2.46-3.52,1.1-.99,2.51-1.76,4.22-2.32,1.72-.56,3.75-.84,6.09-.84s4.54.26,6.34.78,3.36,1.27,4.67,2.24c.63.45,1.19,1,1.68,1.68.48.67.73,1.4.73,2.18,0,1.23-.36,2.22-1.09,2.96-.73.75-1.69,1.12-2.88,1.12-.52,0-1.08-.15-1.68-.45-.6-.3-1.08-.6-1.45-.9-.37-.3-.75-.56-1.12-.78-.37-.22-.8-.42-1.29-.59s-1.02-.3-1.62-.39c-.6-.09-1.32-.14-2.18-.14-1.53,0-2.65.32-3.35.95-.71.63-1.06,1.44-1.06,2.4,0,.56.13,1.07.39,1.54.26.46.67.89,1.23,1.28.56.39,1.26.76,2.12,1.12s1.9.7,3.13,1.03c2.09.6,3.87,1.26,5.34,1.98,1.47.73,2.67,1.57,3.6,2.51.93.95,1.6,2.05,2.01,3.3.41,1.25.61,2.69.61,4.33,0,1.75-.29,3.33-.87,4.75-.58,1.42-1.43,2.63-2.57,3.63-1.14,1-2.54,1.78-4.22,2.32-1.68.54-3.61.81-5.81.81-1.86,0-3.48-.1-4.83-.31Z"/>
            <path class="st3" d="M680.44,1599.49c-.89.88-2.11,1.31-3.63,1.31s-2.63-.45-3.52-1.34c-.9-.89-1.34-2.1-1.34-3.63s.45-2.63,1.34-3.52c.89-.89,2.1-1.34,3.63-1.34s2.67.47,3.55,1.4c.87.93,1.31,2.12,1.31,3.58s-.45,2.67-1.34,3.55ZM680.44,1618.71c-.89.87-2.11,1.31-3.63,1.31s-2.63-.45-3.52-1.34c-.9-.89-1.34-2.1-1.34-3.63s.45-2.63,1.34-3.52c.89-.9,2.1-1.34,3.63-1.34s2.67.46,3.55,1.4c.87.93,1.31,2.12,1.31,3.58s-.45,2.67-1.34,3.55Z"/>
            <g>
              <path class="st3" d="M711.79,1612.31h11.29c1.15,0,2.08.36,2.77,1.06.69.71,1.03,1.66,1.03,2.85s-.34,2.08-1.03,2.77c-.69.69-1.61,1.03-2.77,1.03h-16.1c-1.34,0-2.42-.41-3.24-1.23-.82-.82-1.23-1.9-1.23-3.24v-30.18c0-1.34.42-2.42,1.26-3.24.84-.82,2.02-1.23,3.55-1.23,1.34,0,2.42.41,3.24,1.23.82.82,1.23,1.9,1.23,3.24v26.94Z"/>
              <path class="st3" d="M757.54,1610.69c-.76,2.12-1.82,3.87-3.16,5.25-1.34,1.38-2.94,2.4-4.81,3.07-1.86.67-3.89,1.01-6.09,1.01s-4.23-.33-6.09-1.01c-1.86-.67-3.47-1.69-4.81-3.07-1.34-1.38-2.39-3.13-3.16-5.25-.77-2.12-1.15-4.62-1.15-7.49v-6.04c0-2.91.38-5.42,1.15-7.54.76-2.12,1.82-3.86,3.16-5.23,1.34-1.36,2.94-2.38,4.81-3.04,1.86-.67,3.89-1.01,6.09-1.01s4.23.33,6.09,1.01c1.86.67,3.47,1.69,4.81,3.04,1.34,1.36,2.39,3.1,3.16,5.23.76,2.12,1.15,4.64,1.15,7.54v6.04c0,2.87-.38,5.36-1.15,7.49ZM737.56,1603.2c0,1.56.13,2.92.39,4.08.26,1.16.64,2.11,1.14,2.85.5.74,1.12,1.29,1.85,1.65.73.35,1.57.53,2.54.53s1.82-.18,2.54-.53,1.34-.9,1.85-1.65c.5-.75.88-1.7,1.14-2.85.26-1.15.39-2.51.39-4.08v-6.04c0-1.56-.13-2.92-.39-4.08-.26-1.16-.64-2.11-1.14-2.85-.5-.74-1.12-1.29-1.85-1.65s-1.58-.53-2.54-.53-1.82.18-2.54.53c-.73.35-1.34.9-1.85,1.65-.5.75-.88,1.7-1.14,2.85-.26,1.15-.39,2.51-.39,4.08v6.04Z"/>
              <path class="st3" d="M791.68,1610.69c-.76,2.12-1.82,3.87-3.16,5.25-1.34,1.38-2.94,2.4-4.81,3.07-1.86.67-3.89,1.01-6.09,1.01s-4.23-.33-6.09-1.01c-1.86-.67-3.47-1.69-4.81-3.07-1.34-1.38-2.39-3.13-3.16-5.25-.77-2.12-1.15-4.62-1.15-7.49v-6.04c0-2.91.38-5.42,1.15-7.54.76-2.12,1.82-3.86,3.16-5.23,1.34-1.36,2.94-2.38,4.81-3.04,1.86-.67,3.89-1.01,6.09-1.01s4.23.33,6.09,1.01c1.86.67,3.47,1.69,4.81,3.04,1.34,1.36,2.39,3.1,3.16,5.23.76,2.12,1.15,4.64,1.15,7.54v6.04c0,2.87-.38,5.36-1.15,7.49ZM771.7,1603.2c0,1.56.13,2.92.39,4.08.26,1.16.64,2.11,1.14,2.85.5.74,1.12,1.29,1.85,1.65.73.35,1.57.53,2.54.53s1.82-.18,2.54-.53,1.34-.9,1.85-1.65c.5-.75.88-1.7,1.14-2.85.26-1.15.39-2.51.39-4.08v-6.04c0-1.56-.13-2.92-.39-4.08-.26-1.16-.64-2.11-1.14-2.85-.5-.74-1.12-1.29-1.85-1.65-.73-.35-1.58-.53-2.54-.53s-1.82.18-2.54.53c-.73.35-1.34.9-1.85,1.65-.5.75-.88,1.7-1.14,2.85-.26,1.15-.39,2.51-.39,4.08v6.04Z"/>
              <path class="st3" d="M818.43,1580.9c1.15,0,2.08.35,2.77,1.06.69.71,1.03,1.66,1.03,2.85s-.34,2.08-1.03,2.77c-.69.69-1.61,1.04-2.77,1.04h-6.26v26.94c0,1.34-.42,2.42-1.26,3.24s-2.02,1.23-3.55,1.23c-1.34,0-2.42-.41-3.24-1.23-.82-.82-1.23-1.9-1.23-3.24v-26.94h-6.26c-1.16,0-2.08-.35-2.77-1.06-.69-.71-1.03-1.66-1.03-2.85s.34-2.08,1.03-2.77c.69-.69,1.61-1.03,2.77-1.03h21.8Z"/>
              <path class="st3" d="M827.96,1618.77c-.84-.84-1.26-1.95-1.26-3.32v-30.63c0-1.34.42-2.42,1.26-3.24.84-.82,1.97-1.23,3.38-1.23s2.59.41,3.41,1.23c.82.82,1.23,1.9,1.23,3.24v30.63c0,1.38-.41,2.49-1.23,3.32-.82.84-1.96,1.26-3.41,1.26s-2.54-.42-3.38-1.26Z"/>
              <path class="st3" d="M863.81,1581.46c1.19,0,2.16.34,2.91,1.03.74.69,1.12,1.61,1.12,2.77s-.37,2.14-1.12,2.85c-.75.71-1.72,1.06-2.91,1.06h-11.29v7.04h9.61c1.23,0,2.21.33,2.93,1,.73.67,1.09,1.59,1.09,2.74s-.37,2.15-1.12,2.88c-.75.73-1.73,1.09-2.96,1.09h-9.56v8.38h11.29c1.23,0,2.21.35,2.93,1.04.73.69,1.09,1.61,1.09,2.77s-.37,2.14-1.12,2.85c-.75.71-1.72,1.06-2.91,1.06h-16.1c-1.34,0-2.42-.41-3.24-1.23-.82-.82-1.23-1.9-1.23-3.24v-29.62c0-1.34.41-2.42,1.23-3.24.82-.82,1.9-1.23,3.24-1.23h16.1Z"/>
            </g>
            <path class="st3" d="M890.35,1580.9c.97,0,1.74.3,2.32.89.58.6.87,1.4.87,2.4s-.29,1.74-.87,2.32-1.35.86-2.32.86h-3.69v13.75c0,1.12-.33,2-1,2.65-.67.65-1.57.98-2.68.98s-2-.33-2.65-.98c-.65-.65-.98-1.54-.98-2.65v-13.75h-3.74c-.97,0-1.74-.3-2.32-.89-.58-.6-.87-1.4-.87-2.4s.29-1.74.87-2.32c.58-.58,1.35-.87,2.32-.87h14.75ZM907.46,1592.02l5.2-8.78c.48-.82,1.04-1.51,1.68-2.07.63-.56,1.51-.84,2.63-.84s1.96.36,2.63,1.09c.67.73,1.01,1.71,1.01,2.93v16.77c0,1.08-.34,1.96-1.01,2.63-.67.67-1.57,1-2.68,1s-2-.33-2.65-1c-.65-.67-.98-1.55-.98-2.63v-5.87l-2.07,3.24c-.45.71-.99,1.3-1.62,1.76s-1.38.7-2.24.7c-.78,0-1.52-.23-2.21-.7-.69-.46-1.24-1.07-1.65-1.82l-1.84-3.19v5.87c0,1.08-.33,1.96-1.01,2.63-.67.67-1.56,1-2.68,1s-2-.33-2.65-1c-.65-.67-.98-1.55-.98-2.63v-16.77c0-1.23.34-2.21,1.03-2.93.69-.73,1.61-1.09,2.77-1.09s1.99.28,2.63.84c.63.56,1.17,1.23,1.62,2.01l5.09,8.83Z"/>
            <path class="st3" d="M930.51,1651.06H322.79c-10.03,0-18.19-8.16-18.19-18.19v-65.38c0-10.03,8.16-18.19,18.19-18.19h607.73c10.03,0,18.19,8.16,18.19,18.19v65.38c0,10.03-8.16,18.19-18.19,18.19ZM322.79,1557.7c-5.4,0-9.79,4.39-9.79,9.79v65.38c0,5.4,4.39,9.79,9.79,9.79h607.73c5.4,0,9.79-4.39,9.79-9.79v-65.38c0-5.4-4.39-9.79-9.79-9.79H322.79Z"/>
          </g>
        </g>
      </g>
      <g>
        <path class="st1" d="M1295.13,1629.4l49.3-52.08c1.69-1.79,2.27-4.36,1.51-6.69-.76-2.35-2.74-4.08-5.15-4.53l-70.49-13.15,9.27-71.11c.32-2.44-.73-4.86-2.72-6.3-1.98-1.44-4.61-1.68-6.83-.64l-64.76,30.79-34.29-62.97c-1.17-2.16-3.44-3.51-5.9-3.51s-4.73,1.35-5.9,3.51l-34.3,62.97-64.76-30.79c-2.22-1.04-4.85-.81-6.83.64-2,1.44-3.04,3.86-2.72,6.3l9.28,71.11-70.49,13.15c-2.42.46-4.39,2.19-5.15,4.53-.76,2.34-.18,4.91,1.51,6.69l49.29,52.08-49.29,52.08c-1.69,1.79-2.27,4.36-1.51,6.69.75,2.35,2.74,4.08,5.15,4.53l70.49,13.16-9.28,71.1c-.32,2.44.73,4.86,2.72,6.3,1.99,1.44,4.61,1.68,6.83.64l64.76-30.79,34.3,62.97c1.17,2.16,3.44,3.51,5.9,3.51s4.73-1.35,5.9-3.51l34.29-62.97,64.76,30.79c2.22,1.04,4.86.81,6.83-.64,2-1.44,3.04-3.86,2.72-6.3l-9.27-71.1,70.49-13.16c2.42-.46,4.4-2.19,5.15-4.53.76-2.34.18-4.91-1.51-6.69l-49.3-52.08Z"/>
        <path class="st2" d="M1165.06,1825.6c-4.67,0-8.95-2.55-11.17-6.65l-31.58-57.98-59.63,28.36c-4.24,1.99-9.19,1.52-12.94-1.2-3.77-2.73-5.74-7.3-5.14-11.92l8.54-65.48-64.91-12.12c-4.6-.87-8.34-4.16-9.77-8.6-1.44-4.41-.34-9.26,2.86-12.65l45.39-47.95-45.39-47.95c-3.2-3.39-4.3-8.24-2.85-12.68,1.44-4.42,5.17-7.71,9.75-8.57l64.92-12.11-8.54-65.48c-.6-4.63,1.38-9.2,5.15-11.94,3.74-2.72,8.69-3.19,12.9-1.21l59.66,28.37,31.59-57.98c2.22-4.09,6.5-6.64,11.17-6.64s8.95,2.55,11.17,6.65l31.57,57.98,59.63-28.36c4.25-1.99,9.2-1.52,12.95,1.21,3.76,2.72,5.73,7.29,5.13,11.91l-8.53,65.49,64.91,12.11c4.59.86,8.32,4.15,9.76,8.58,1.44,4.43.35,9.28-2.85,12.67l-45.4,47.95,45.4,47.95c3.2,3.39,4.3,8.25,2.85,12.68-1.42,4.41-5.15,7.7-9.75,8.57l-64.92,12.12,8.53,65.47c.6,4.63-1.38,9.2-5.15,11.94-3.73,2.72-8.68,3.19-12.9,1.21l-59.66-28.37-31.58,57.98c-2.22,4.09-6.5,6.64-11.17,6.64ZM1127.41,1745.26l37.02,67.96c.25.47,1.01.46,1.25,0l37.02-67.97,69.89,33.23c.22.1.52.08.72-.07.23-.17.34-.43.31-.69l-10-76.73,76.07-14.2c.25-.05.47-.23.54-.47.09-.27.03-.55-.15-.74l-53.21-56.2,53.21-56.2c.18-.19.24-.46.16-.71-.08-.26-.3-.45-.56-.5l-76.06-14.19,10-76.74c.03-.25-.08-.51-.29-.66-.22-.16-.52-.18-.77-.07l-69.86,33.22-37.01-67.96c-.25-.47-1.01-.46-1.25,0l-37.03,67.97-69.89-33.23c-.22-.1-.52-.08-.73.07-.22.16-.33.42-.3.68l10.01,76.73-76.07,14.19c-.25.05-.47.23-.55.49-.08.25-.02.53.16.72l53.2,56.2-53.2,56.2c-.18.19-.24.47-.16.71.09.27.3.45.56.5l76.06,14.2-10.01,76.73c-.03.25.08.51.29.66.22.16.52.18.77.07l69.85-33.22Z"/>
        <path d="M1237.92,1587.65l-80.16-46.28c-2.35-1.36-5.23-1.36-7.57,0l-80.16,46.28c-2.35,1.35-3.79,3.86-3.79,6.56v92.56c0,2.7,1.44,5.21,3.79,6.56l80.16,46.28c1.17.68,2.48,1.02,3.79,1.02s2.61-.34,3.79-1.02l80.16-46.28c2.35-1.35,3.79-3.86,3.79-6.56v-92.56c0-2.7-1.44-5.21-3.79-6.56Z"/>
        <path class="st3" d="M1256.23,1569.34l-80.16-46.28c-2.35-1.36-5.23-1.36-7.57,0l-80.16,46.28c-2.35,1.35-3.79,3.86-3.79,6.56v92.56c0,2.7,1.44,5.21,3.79,6.56l80.16,46.28c1.17.68,2.48,1.02,3.79,1.02s2.61-.34,3.79-1.02l80.16-46.28c2.35-1.35,3.79-3.86,3.79-6.56v-92.56c0-2.7-1.44-5.21-3.79-6.56Z"/>
        <path class="st2" d="M1210.72,1602.36c0,7.33-2.18,13.87-6.54,19.61-4.35,5.74-10.4,9.71-18.12,11.88l-.15,9.57c0,1.78-.89,2.68-2.67,2.68h-26.44c-1.78,0-2.67-.89-2.67-2.68l-.45-22.64c0-1.78.89-2.67,2.67-2.67h3.72c7.02,0,11.75-1.09,14.18-3.27,2.43-2.17,3.64-5.05,3.64-8.61,0-2.48-.77-4.43-2.31-5.87-1.54-1.44-3.59-2.16-6.16-2.16-4.06,0-7.18,1.74-9.35,5.2-.89,1.39-2.03,1.93-3.42,1.64l-24.66-5.64c-1.88-.5-2.52-1.59-1.93-3.27,3.26-8.71,8.59-15.35,15.97-19.9,7.38-4.55,15.62-6.83,24.73-6.83,7.82,0,14.73,1.36,20.72,4.08,5.99,2.73,10.69,6.56,14.11,11.51,3.41,4.96,5.12,10.75,5.12,17.38ZM1180.46,1654.04c-2.76-.24-5.3.63-7.26,2.21-1.95,1.57-4.71,1.57-6.66,0-1.95-1.58-4.5-2.45-7.26-2.21-4.65.4-8.47,4.03-9.11,8.66-.2,1.42-.09,2.8.26,4.07,1.68,6.68,10.24,15.44,19.76,15.7h0s.06.01.09.01c.11,0,.23,0,.34,0,.11,0,.23,0,.34,0,.03,0,.06,0,.09,0h0c9.51-.27,16.59-9.03,18.26-15.71.35-1.27.45-2.65.26-4.07-.64-4.63-4.46-8.26-9.11-8.66Z"/>
      </g>
    </g>
    <g>
      <g>
        <path class="st1" d="M106.49,1242.15c0-5.5,4.5-10,10-10h25.95c5.5,0,10,4.5,10,10v7.85c0,5.5,3.13,10,6.96,10s6.96-4.5,6.96-10v-7.85c0-5.5,4.5-10,10-10h25.95c5.5,0,10,4.5,10,10v84.43c0,5.5-4.5,10-10,10h-25.95c-5.5,0-10-4.5-10-10v-7.85c0-5.5-3.13-10-6.96-10s-6.96,4.5-6.96,10v7.85c0,5.5-4.5,10-10,10h-25.95c-5.5,0-10-4.5-10-10v-84.43Z"/>
        <path class="st1" d="M223.45,1242.15c0-5.5,4.5-10,10-10h81.65c5.5,0,10,4.5,10,10v12.03c0,5.5-4.5,10-10,10h-30.13c-5.5,0-10,3.76-10,8.35s4.5,8.35,10,8.35h.89c5.5,0,10,3.76,10,8.35s4.5,8.35,10,8.35h9.24c5.5,0,10,4.5,10,10v18.99c0,5.5-4.5,10-10,10h-81.65c-5.5,0-10-4.5-10-10v-84.43Z"/>
        <path class="st1" d="M333.45,1242.15c0-5.5,4.5-10,10-10h31.52c5.5,0,10,4.5,10,10v35.7c0,5.5,4.5,10,10,10h30.13c5.5,0,10,4.5,10,10v28.73c0,5.5-4.5,10-10,10h-81.65c-5.5,0-10-4.5-10-10v-84.43Z"/>
        <path class="st1" d="M440.66,1242.15c0-5.5,4.5-10,10-10h31.52c5.5,0,10,4.5,10,10v35.7c0,5.5,4.5,10,10,10h30.13c5.5,0,10,4.5,10,10v28.73c0,5.5-4.5,10-10,10h-81.65c-5.5,0-10-4.5-10-10v-84.43Z"/>
        <path class="st1" d="M544.25,1284.36c0-29.66,23.95-53.61,53.61-53.61s53.61,23.95,53.61,53.61-23.95,53.61-53.61,53.61-53.61-23.95-53.61-53.61Z"/>
        <path class="st1" d="M106.49,1357.74c0-5.5,4.5-10,10-10h31.52c5.5,0,10,4.5,10,10v84.43c0,5.5-4.5,10-10,10h-31.52c-5.5,0-10-4.5-10-10v-84.43Z"/>
        <path class="st1" d="M174.94,1372.41c-4.34-3.38-7.88-10.32-7.88-15.41s4.5-9.26,10-9.26h1.58c5.5,0,10,4.5,10,10v15.37c0,5.5-3.55,7.23-7.88,3.85l-5.82-4.54Z"/>
        <path class="st1" d="M197.69,1355.37c0-5.5,3.61-7.31,8.01-4.02l36.19,27.02c4.41,3.29,11.62,3.29,16.03,0l36.19-27.02c4.41-3.29,8.01-1.48,8.01,4.02v86.8c0,5.5-4.5,10-10,10h-29.99c-5.5,0-7.61-3.81-4.69-8.47l3.86-6.17c2.92-4.66.81-8.47-4.69-8.47h-13.42c-5.5,0-7.61,3.81-4.69,8.47l3.86,6.17c2.92,4.66.81,8.47-4.69,8.47h-29.99c-5.5,0-10-4.5-10-10v-86.8Z"/>
        <path class="st1" d="M368.95,1357.74c0-5.5,4.5-10,10-10h31.52c5.5,0,10,4.5,10,10v35.7c0,5.5,4.5,10,10,10h30.13c5.5,0,10,4.5,10,10v28.73c0,5.5-4.5,10-10,10h-81.65c-5.5,0-10-4.5-10-10v-84.43Z"/>
        <path class="st1" d="M472.54,1399.96c0-29.66,23.95-53.61,53.61-53.61s53.61,23.95,53.61,53.61-23.95,53.61-53.61,53.61-53.61-23.95-53.61-53.61Z"/>
        <path class="st1" d="M583.65,1399.96c0-29.66,23.95-53.61,53.61-53.61s53.61,23.95,53.61,53.61-23.95,53.61-53.61,53.61-53.61-23.95-53.61-53.61Z"/>
        <path class="st1" d="M719.26,1406.47c0-5.5-4.5-10-10-10h-5.06c-5.5,0-10-4.5-10-10v-28.73c0-5.5,4.5-10,10-10h81.65c5.5,0,10,4.5,10,10v28.73c0,5.5-4.5,10-10,10h-5.06c-5.5,0-10,4.5-10,10v35.7c0,5.5-4.5,10-10,10h-31.52c-5.5,0-10-4.5-10-10v-35.7Z"/>
        <path class="st1" d="M802.8,1357.74c0-5.5,4.5-10,10-10h31.52c5.5,0,10,4.5,10,10v84.43c0,5.5-4.5,10-10,10h-31.52c-5.5,0-10-4.5-10-10v-84.43Z"/>
        <path class="st1" d="M865.46,1357.74c0-5.5,4.5-10,10-10h81.65c5.5,0,10,4.5,10,10v12.03c0,5.5-4.5,10-10,10h-30.13c-5.5,0-10,3.76-10,8.35s4.5,8.35,10,8.35h.89c5.5,0,10,3.76,10,8.35s4.5,8.35,10,8.35h9.24c5.5,0,10,4.5,10,10v18.99c0,5.5-4.5,10-10,10h-81.65c-5.5,0-10-4.5-10-10v-84.43Z"/>
      </g>
      <g>
        <g>
          <path class="st2" d="M560.88,1465.16c-.33,0-.67-.07-.98-.23-34.01-16.39-52.94-3.56-53.12-3.43-1.03.72-2.44.47-3.17-.55-.72-1.03-.47-2.44.55-3.17.22-.15,5.51-3.81,15.34-5.2,5.69-.81,11.76-.7,18.06.32,7.81,1.26,15.99,3.93,24.31,7.94,1.13.54,1.61,1.9,1.06,3.03-.39.81-1.2,1.29-2.05,1.29Z"/>
          <path class="st2" d="M560.87,1418.98c-.12,5.93-1.38,11.79-3.98,17.15-3.95,8.14-12.27,19.56-22.47,19.57-12.77,0-19.03-17.54-21.08-27.93-2.49-12.61-.62-26.21,6.09-37.26,3.71-6.11,9.62-11.87,16.77-11.73,6.38.12,11.72,4.93,15.4,10.15,6.02,8.55,9.49,19.42,9.28,30.07Z"/>
          <circle class="st1" cx="525.12" cy="1401.43" r="5.62"/>
        </g>
        <g>
          <path class="st2" d="M673.19,1465.16c-.33,0-.67-.07-.98-.23-17.57-8.47-29.21-9.26-35.87-8.44-7.07.87-10.13,3.71-10.16,3.74l.02-.02-3.2-3.23c.58-.57,14.55-13.8,51.19,3.85,1.13.54,1.61,1.9,1.06,3.03-.39.81-1.2,1.29-2.05,1.29Z"/>
          <path class="st2" d="M673.18,1418.98c-.12,5.93-1.38,11.79-3.98,17.15-3.95,8.14-12.27,19.56-22.47,19.57-12.77,0-19.03-17.54-21.08-27.93-2.49-12.61-.62-26.21,6.09-37.26,3.71-6.11,9.62-11.87,16.77-11.73,6.38.12,11.72,4.93,15.4,10.15,6.02,8.55,9.49,19.42,9.28,30.07Z"/>
          <circle class="st1" cx="637.42" cy="1401.43" r="5.62" transform="translate(-872.97 1699.79) rotate(-76.72)"/>
        </g>
        <path class="st2" d="M602.43,1490.47c-14.06,0-27.81-11.69-28.42-12.22-.95-.82-1.06-2.25-.24-3.21.82-.95,2.25-1.06,3.21-.24.14.12,14.36,12.18,27.2,11.04,4.77-.42,8.66-2.56,11.9-6.54,5.78-7.09,5.91-14.59.4-22.29-1.68-2.35-4.19-3.88-7.06-4.31-2.88-.43-5.75.3-8.07,2.07-12.73,9.71-25.24,10.35-25.76,10.37-1.25.05-2.31-.92-2.37-2.17-.05-1.25.92-2.31,2.17-2.37.19,0,11.7-.67,23.2-9.44,3.3-2.52,7.39-3.57,11.5-2.95,4.09.61,7.67,2.8,10.08,6.15,2.95,4.11,4.58,8.31,4.87,12.48.36,5.31-1.47,10.46-5.43,15.33-4,4.91-9.06,7.67-15.04,8.2-.71.06-1.43.09-2.14.09Z"/>
      </g>
    </g>
  </g>
  <g>
    <g>
      <path class="st2" d="M831.73,578.14c-1.24,0-2.49-.27-3.68-.84-127.14-61.26-197.88-13.31-198.58-12.82-3.84,2.7-9.14,1.77-11.83-2.07-2.7-3.84-1.77-9.14,2.07-11.83.82-.58,20.6-14.24,57.35-19.45,21.25-3.02,43.97-2.62,67.51,1.18,29.19,4.71,59.75,14.7,90.85,29.68,4.23,2.04,6,7.11,3.97,11.34-1.46,3.04-4.5,4.81-7.66,4.81Z"/>
      <path class="st2" d="M831.7,405.52c-.44,22.17-5.16,44.09-14.88,64.12-14.76,30.42-45.86,73.13-84,73.14-47.72,0-71.12-65.56-78.81-104.42-9.33-47.13-2.31-97.96,22.76-139.29,13.86-22.85,35.95-44.37,62.67-43.86,23.86.45,43.82,18.42,57.57,37.93,22.52,31.97,35.49,72.59,34.69,112.38Z"/>
      <circle class="st1" cx="698.05" cy="339.92" r="20.99"/>
    </g>
    <g>
      <path class="st2" d="M1251.53,578.14c-1.24,0-2.49-.27-3.68-.84-65.68-31.65-109.18-34.62-134.1-31.53-26.41,3.27-37.86,13.86-37.97,13.97l.07-.07-11.96-12.07c2.16-2.14,54.4-51.59,191.34,14.39,4.23,2.04,6,7.11,3.97,11.34-1.46,3.04-4.5,4.81-7.66,4.81Z"/>
      <path class="st2" d="M1251.5,405.52c-.44,22.17-5.16,44.09-14.88,64.12-14.76,30.42-45.86,73.13-84,73.14-47.72,0-71.12-65.56-78.81-104.42-9.33-47.13-2.31-97.96,22.76-139.29,13.86-22.85,35.95-44.37,62.67-43.86,23.86.45,43.82,18.42,57.57,37.93,22.52,31.97,35.49,72.59,34.69,112.38Z"/>
      <circle class="st1" cx="1117.85" cy="339.92" r="20.99" transform="translate(530.18 1349.76) rotate(-76.72)"/>
    </g>
  </g>
  <path class="st2" d="M1001.3,678.71c-49.09,0-97.11-40.83-99.23-42.65-3.32-2.86-3.7-7.87-.84-11.19,2.86-3.32,7.87-3.7,11.19-.84.49.42,50.12,42.54,94.98,38.54,16.65-1.48,30.24-8.95,41.56-22.84,20.18-24.77,20.65-50.95,1.38-77.82-5.88-8.2-14.63-13.54-24.64-15.04-10.07-1.51-20.08,1.06-28.17,7.24-44.46,33.91-88.12,36.13-89.96,36.21-4.37.19-8.08-3.21-8.26-7.59-.19-4.37,3.21-8.07,7.58-8.26.66-.03,40.84-2.33,81.01-32.97,11.54-8.8,25.79-12.46,40.14-10.31,14.29,2.14,26.79,9.77,35.19,21.48,10.29,14.34,16,29.01,16.99,43.58,1.25,18.52-5.13,36.53-18.97,53.51-13.97,17.15-31.64,26.78-52.5,28.63-2.48.22-4.98.32-7.46.32Z"/>
</svg>